<svg width="42" height="42" viewBox="0 0 42 42" fill="none" xmlns="http://www.w3.org/2000/svg">
<rect width="42" height="42" rx="21" fill="#F9F9F9"/>
<path opacity="0.4" d="M18.75 13.5C16.785 13.5 15.1875 15.0975 15.1875 17.0625C15.1875 18.99 16.695 20.55 18.66 20.6175C18.72 20.61 18.78 20.61 18.825 20.6175C18.84 20.6175 18.8475 20.6175 18.8625 20.6175C18.87 20.6175 18.87 20.6175 18.8775 20.6175C20.7975 20.55 22.305 18.99 22.3125 17.0625C22.3125 15.0975 20.715 13.5 18.75 13.5Z" fill="#6A5BC1"/>
<path d="M22.56 22.6124C20.4675 21.2174 17.055 21.2174 14.9475 22.6124C13.995 23.2499 13.47 24.1124 13.47 25.0349C13.47 25.9574 13.995 26.8124 14.94 27.4424C15.99 28.1474 17.37 28.4999 18.75 28.4999C20.13 28.4999 21.51 28.1474 22.56 27.4424C23.505 26.8049 24.03 25.9499 24.03 25.0199C24.0225 24.0974 23.505 23.2424 22.56 22.6124Z" fill="#6A5BC1"/>
<path opacity="0.4" d="M26.9925 17.5051C27.1125 18.9601 26.0775 20.2351 24.645 20.4076C24.6375 20.4076 24.6375 20.4076 24.63 20.4076H24.6075C24.5625 20.4076 24.5175 20.4076 24.48 20.4226C23.7525 20.4601 23.085 20.2276 22.5825 19.8001C23.355 19.1101 23.7975 18.0751 23.7075 16.9501C23.655 16.3426 23.445 15.7876 23.13 15.3151C23.415 15.1726 23.745 15.0826 24.0825 15.0526C25.5525 14.9251 26.865 16.0201 26.9925 17.5051Z" fill="#6A5BC1"/>
<path d="M28.4924 24.4423C28.4324 25.1698 27.9674 25.7998 27.1874 26.2273C26.4374 26.6398 25.4924 26.8348 24.5549 26.8123C25.0949 26.3248 25.4099 25.7173 25.4699 25.0723C25.5449 24.1423 25.1024 23.2498 24.2174 22.5373C23.7149 22.1398 23.1299 21.8248 22.4924 21.5923C24.1499 21.1123 26.2349 21.4348 27.5174 22.4698C28.2074 23.0248 28.5599 23.7223 28.4924 24.4423Z" fill="#6A5BC1"/>
</svg>
