<svg width="32" height="32" viewBox="0 0 32 32" fill="none" xmlns="http://www.w3.org/2000/svg">
<rect width="32" height="32" rx="6" fill="#EB5842"/>
<path d="M22.0466 11.4867C20.9733 11.38 19.8999 11.3 18.8199 11.24V11.2334L18.6733 10.3667C18.5733 9.75337 18.4266 8.83337 16.8666 8.83337H15.1199C13.5666 8.83337 13.4199 9.71337 13.3133 10.36L13.1733 11.2134C12.5533 11.2534 11.9333 11.2934 11.3133 11.3534L9.95328 11.4867C9.67328 11.5134 9.47328 11.76 9.49994 12.0334C9.52661 12.3067 9.76661 12.5067 10.0466 12.48L11.4066 12.3467C14.8999 12 18.4199 12.1334 21.9533 12.4867C21.9733 12.4867 21.9866 12.4867 22.0066 12.4867C22.2599 12.4867 22.4799 12.2934 22.5066 12.0334C22.5266 11.76 22.3266 11.5134 22.0466 11.4867Z" fill="white"/>
<path d="M20.8199 13.4266C20.6599 13.26 20.4399 13.1666 20.2132 13.1666H11.7866C11.5599 13.1666 11.3332 13.26 11.1799 13.4266C11.0266 13.5933 10.9399 13.82 10.9532 14.0533L11.3666 20.8933C11.4399 21.9066 11.5332 23.1733 13.8599 23.1733H18.1399C20.4666 23.1733 20.5599 21.9133 20.6332 20.8933L21.0466 14.06C21.0599 13.82 20.9732 13.5933 20.8199 13.4266ZM17.1066 19.8333H14.8866C14.6132 19.8333 14.3866 19.6066 14.3866 19.3333C14.3866 19.06 14.6132 18.8333 14.8866 18.8333H17.1066C17.3799 18.8333 17.6066 19.06 17.6066 19.3333C17.6066 19.6066 17.3799 19.8333 17.1066 19.8333ZM17.6666 17.1666H14.3332C14.0599 17.1666 13.8332 16.94 13.8332 16.6666C13.8332 16.3933 14.0599 16.1666 14.3332 16.1666H17.6666C17.9399 16.1666 18.1666 16.3933 18.1666 16.6666C18.1666 16.94 17.9399 17.1666 17.6666 17.1666Z" fill="white"/>
</svg>
