<svg width="23" height="22" viewBox="0 0 23 22" fill="none" xmlns="http://www.w3.org/2000/svg">
<path fill-rule="evenodd" clip-rule="evenodd" d="M13.9107 3.12975C14.6266 2.41378 15.7874 2.41378 16.5034 3.12975L17.7998 4.4261C18.5158 5.14207 18.5158 6.30287 17.7998 7.01883L16.5034 8.31519L12.6144 4.4261L13.9107 3.12975ZM11.9661 5.07427L15.8551 8.96336L8.34549 16.4731C8.17357 16.6449 7.94042 16.7415 7.6973 16.7415H4.64625C4.39311 16.7415 4.18792 16.5363 4.18792 16.2832V13.2322C4.18792 12.989 4.28449 12.7559 4.4564 12.584L11.9661 5.07427ZM4.76421 17.875C4.38451 17.875 4.07671 18.1828 4.07671 18.5625C4.07671 18.9423 4.38451 19.25 4.76421 19.25H18.0559C18.4356 19.25 18.7434 18.9423 18.7434 18.5625C18.7434 18.1828 18.4356 17.875 18.0559 17.875H4.76421Z" fill="#6A5BC1"/>
</svg>
