<svg width="32" height="32" viewBox="0 0 32 32" fill="none" xmlns="http://www.w3.org/2000/svg">
<rect width="32" height="32" rx="6" fill="#0085FF"/>
<path d="M22 22.6666H10C9.72667 22.6666 9.5 22.44 9.5 22.1666C9.5 21.8933 9.72667 21.6666 10 21.6666H22C22.2733 21.6666 22.5 21.8933 22.5 22.1666C22.5 22.44 22.2733 22.6666 22 22.6666Z" fill="white"/>
<path d="M20.6799 10.3199C19.3866 9.02661 18.1199 8.99328 16.7932 10.3199L15.9866 11.1266C15.9199 11.1933 15.8932 11.2999 15.9199 11.3933C16.4266 13.1599 17.8399 14.5733 19.6066 15.0799C19.6332 15.0866 19.6599 15.0933 19.6866 15.0933C19.7599 15.0933 19.8266 15.0666 19.8799 15.0133L20.6799 14.2066C21.3399 13.5533 21.6599 12.9199 21.6599 12.2799C21.6666 11.6199 21.3466 10.9799 20.6799 10.3199Z" fill="white"/>
<path d="M18.4066 15.6867C18.2132 15.5933 18.0266 15.5 17.8466 15.3933C17.6999 15.3067 17.5599 15.2133 17.4199 15.1133C17.3066 15.04 17.1732 14.9333 17.0466 14.8267C17.0332 14.82 16.9866 14.78 16.9332 14.7267C16.7132 14.54 16.4666 14.3 16.2466 14.0333C16.2266 14.02 16.1932 13.9733 16.1466 13.9133C16.0799 13.8333 15.9666 13.7 15.8666 13.5467C15.7866 13.4467 15.6932 13.3 15.6066 13.1533C15.4999 12.9733 15.4066 12.7933 15.3132 12.6067C15.1908 12.3444 14.8467 12.2665 14.6421 12.4712L10.8932 16.22C10.8066 16.3067 10.7266 16.4733 10.7066 16.5867L10.3466 19.14C10.2799 19.5933 10.4066 20.02 10.6866 20.3067C10.9266 20.54 11.2599 20.6667 11.6199 20.6667C11.6999 20.6667 11.7799 20.66 11.8599 20.6467L14.4199 20.2867C14.5399 20.2667 14.7066 20.1867 14.7866 20.1L18.5416 16.345C18.7421 16.1444 18.6668 15.7994 18.4066 15.6867Z" fill="white"/>
</svg>
