<svg width="24" height="24" viewBox="0 0 24 24" fill="none" xmlns="http://www.w3.org/2000/svg">
<path opacity="0.4" d="M20.84 13.17C21.23 13.17 21.54 12.85 21.54 12.45V11.57C21.54 7.64 20.34 6.45 16.42 6.45H10.12V8.88C10.51 8.88 10.83 9.2 10.83 9.59V12.27C10.83 12.66 10.51 12.98 10.12 12.98V15.49C10.51 15.49 10.83 15.81 10.83 16.2V18.88C10.83 19.27 10.51 19.59 10.12 19.59V22H16.42C20.34 22 21.54 20.8 21.54 16.88C21.54 16.49 21.23 16.17 20.84 16.17C20 16.17 19.33 15.5 19.33 14.67C19.33 13.84 20 13.17 20.84 13.17Z" fill="white"/>
<path d="M7.56997 6.46C7.57997 6.46 7.57997 6.46 7.56997 6.46H7.57997H16.41C16.48 6.46 16.55 6.46 16.61 6.46C16.6 6.44 16.6 6.43 16.6 6.41C16.57 6.06 16.71 5.72 16.97 5.46C17.1 5.33 17.18 5.15 17.18 4.96C17.18 4.77 17.1 4.59 16.97 4.46L16.42 3.9C15.44 2.91 14.36 2 13.1 2C11.85 2 10.76 2.91 9.77997 3.9L7.21997 6.46C7.32997 6.46 7.44997 6.46 7.56997 6.46Z" fill="white"/>
<path d="M9.40996 9.59001V12.27C9.40996 12.66 9.72996 12.98 10.12 12.98V15.49C9.72996 15.49 9.40996 15.81 9.40996 16.2V18.88C9.40996 19.27 9.72996 19.59 10.12 19.59V22H7.57996C3.65996 22 2.45996 20.8 2.45996 16.88V16.45C2.45996 16.05 2.76996 15.74 3.15996 15.74C3.99996 15.74 4.66996 15.06 4.66996 14.23C4.66996 13.4 3.99996 12.72 3.15996 12.72C2.76996 12.72 2.45996 12.41 2.45996 12.01V11.58C2.45996 7.65001 3.65996 6.46001 7.57996 6.46001H10.11V8.89001C9.72996 8.89001 9.40996 9.21001 9.40996 9.59001Z" fill="white"/>
</svg>
