<svg width="33" height="32" viewBox="0 0 33 32" fill="none" xmlns="http://www.w3.org/2000/svg">
<rect x="0.501099" width="32" height="32" rx="6" fill="#F9F9F9"/>
<path d="M13.42 14.7938L11.931 16.2827C11.3749 16.8388 11.0551 17.5955 11.061 18.3907C11.0668 19.1859 11.3796 19.9471 11.9621 20.5116C12.5265 21.0941 13.288 21.4069 14.083 21.4127C14.8963 21.4187 15.635 21.1169 16.1911 20.5608L17.6801 19.0719M19.582 17.2064L21.0709 15.7174C21.627 15.1613 21.9468 14.4047 21.941 13.6095C21.9351 12.8142 21.6223 12.053 21.0399 11.4885C20.4755 10.9242 19.7142 10.6114 18.919 10.6055C18.1238 10.5997 17.3671 10.9013 16.811 11.4574L15.322 12.9464M14.243 18.2182L18.71 13.7513" stroke="black" stroke-width="1.33333" stroke-linecap="round" stroke-linejoin="round"/>
</svg>
