<svg width="42" height="42" viewBox="0 0 42 42" fill="none" xmlns="http://www.w3.org/2000/svg">
<rect width="42" height="42" rx="21" fill="#F9F9F9"/>
<path opacity="0.4" d="M27.63 21.8774C27.9225 21.8774 28.155 21.6374 28.155 21.3374V20.6774C28.155 17.7299 27.255 16.8374 24.315 16.8374H19.59V18.6599C19.8825 18.6599 20.1225 18.8999 20.1225 19.1924V21.2024C20.1225 21.4949 19.8825 21.7349 19.59 21.7349V23.6174C19.8825 23.6174 20.1225 23.8574 20.1225 24.1499V26.1599C20.1225 26.4524 19.8825 26.6924 19.59 26.6924V28.4999H24.315C27.255 28.4999 28.155 27.5999 28.155 24.6599C28.155 24.3674 27.9225 24.1274 27.63 24.1274C27 24.1274 26.4975 23.6249 26.4975 23.0024C26.4975 22.3799 27 21.8774 27.63 21.8774Z" fill="#6A5BC1"/>
<path d="M17.6775 16.845C17.685 16.845 17.685 16.845 17.6775 16.845H17.685H24.3075C24.36 16.845 24.4125 16.845 24.4575 16.845C24.45 16.83 24.45 16.8225 24.45 16.8075C24.4275 16.545 24.5325 16.29 24.7275 16.095C24.825 15.9975 24.885 15.8625 24.885 15.72C24.885 15.5775 24.825 15.4425 24.7275 15.345L24.315 14.925C23.58 14.1825 22.77 13.5 21.825 13.5C20.8875 13.5 20.07 14.1825 19.335 14.925L17.415 16.845C17.4975 16.845 17.5875 16.845 17.6775 16.845Z" fill="#6A5BC1"/>
<path d="M19.0575 19.1925V21.2025C19.0575 21.495 19.2975 21.735 19.59 21.735V23.6175C19.2975 23.6175 19.0575 23.8575 19.0575 24.15V26.16C19.0575 26.4525 19.2975 26.6925 19.59 26.6925V28.5H17.685C14.745 28.5 13.845 27.6 13.845 24.66V24.3375C13.845 24.0375 14.0775 23.805 14.37 23.805C15 23.805 15.5025 23.295 15.5025 22.6725C15.5025 22.05 15 21.54 14.37 21.54C14.0775 21.54 13.845 21.3075 13.845 21.0075V20.685C13.845 17.7375 14.745 16.845 17.685 16.845H19.5825V18.6675C19.2975 18.6675 19.0575 18.9075 19.0575 19.1925Z" fill="#6A5BC1"/>
</svg>
