<svg width="80" height="80" viewBox="0 0 80 80" fill="none" xmlns="http://www.w3.org/2000/svg">
<rect x="0.5" y="0.5" width="79" height="79" rx="39.5" fill="#6A5BC1"/>
<rect x="0.5" y="0.5" width="79" height="79" rx="39.5" stroke="#6A5BC1"/>
<path d="M40 25.375C37.1075 25.375 34.2799 26.2327 31.8748 27.8398C29.4697 29.4468 27.5952 31.7309 26.4883 34.4033C25.3813 37.0756 25.0917 40.0162 25.656 42.8532C26.2203 45.6902 27.6132 48.2961 29.6586 50.3414C31.7039 52.3868 34.3098 53.7797 37.1468 54.344C39.9838 54.9083 42.9244 54.6187 45.5968 53.5117C48.2691 52.4048 50.5532 50.5303 52.1602 48.1252C53.7673 45.7201 54.625 42.8926 54.625 40C54.6209 36.1225 53.0788 32.4049 50.3369 29.6631C47.5951 26.9213 43.8775 25.3791 40 25.375ZM40 52.375C37.5525 52.375 35.1599 51.6492 33.1248 50.2894C31.0898 48.9297 29.5036 46.9969 28.567 44.7357C27.6304 42.4745 27.3853 39.9863 27.8628 37.5858C28.3403 35.1852 29.5189 32.9802 31.2496 31.2496C32.9802 29.5189 35.1852 28.3403 37.5858 27.8628C39.9863 27.3853 42.4745 27.6304 44.7357 28.567C46.997 29.5036 48.9297 31.0898 50.2894 33.1248C51.6492 35.1599 52.375 37.5525 52.375 40C52.3713 43.2809 51.0663 46.4264 48.7463 48.7463C46.4264 51.0663 43.2809 52.3713 40 52.375ZM46.4209 41.4541C46.5255 41.5586 46.6084 41.6827 46.6649 41.8192C46.7215 41.9558 46.7506 42.1022 46.7506 42.25C46.7506 42.3978 46.7215 42.5442 46.6649 42.6808C46.6084 42.8173 46.5255 42.9414 46.4209 43.0459C46.3164 43.1505 46.1923 43.2334 46.0558 43.2899C45.9192 43.3465 45.7728 43.3756 45.625 43.3756C45.4772 43.3756 45.3308 43.3465 45.1942 43.2899C45.0577 43.2334 44.9336 43.1505 44.8291 43.0459L40 38.2155L35.1709 43.0459C35.0664 43.1505 34.9423 43.2334 34.8058 43.2899C34.6692 43.3465 34.5228 43.3756 34.375 43.3756C34.2272 43.3756 34.0808 43.3465 33.9442 43.2899C33.8077 43.2334 33.6836 43.1505 33.5791 43.0459C33.4745 42.9414 33.3916 42.8173 33.3351 42.6808C33.2785 42.5442 33.2494 42.3978 33.2494 42.25C33.2494 42.1022 33.2785 41.9558 33.3351 41.8192C33.3916 41.6827 33.4745 41.5586 33.5791 41.4541L39.2041 35.8291C39.3086 35.7245 39.4326 35.6415 39.5692 35.5849C39.7058 35.5283 39.8522 35.4991 40 35.4991C40.1478 35.4991 40.2942 35.5283 40.4308 35.5849C40.5674 35.6415 40.6915 35.7245 40.7959 35.8291L46.4209 41.4541Z" fill="#F8F8F8"/>
</svg>
