<svg width="644" height="644" viewBox="0 0 644 644" fill="none" xmlns="http://www.w3.org/2000/svg">
<path d="M86.4501 293.123H282.123V111.515H86.4501V293.123Z" fill="black"/>
<path d="M93.1217 286.451H288.795V104.817H93.1217V286.451Z" fill="white"/>
<path fill-rule="evenodd" clip-rule="evenodd" d="M93.122 287.018H288.795C289.13 287.018 289.362 286.76 289.362 286.451V104.817C289.362 104.508 289.13 104.25 288.795 104.25H93.122C92.8129 104.25 92.5553 104.508 92.5553 104.817V286.451C92.5553 286.76 92.8129 287.018 93.122 287.018ZM288.228 285.884H93.6888V105.384H288.228V285.884Z" fill="black"/>
<path fill-rule="evenodd" clip-rule="evenodd" d="M266.976 132.535C271.69 132.535 275.528 128.697 275.528 123.983C275.528 119.269 271.69 115.431 266.976 115.431C262.262 115.431 258.424 119.269 258.424 123.983C258.424 128.697 262.262 132.535 266.976 132.535ZM266.976 116.564C271.072 116.564 274.395 119.887 274.395 123.983C274.395 128.079 271.072 131.402 266.976 131.402C262.88 131.402 259.557 128.079 259.557 123.983C259.557 119.887 262.88 116.564 266.976 116.564Z" fill="black"/>
<path fill-rule="evenodd" clip-rule="evenodd" d="M237.481 132.535C242.195 132.535 246.033 128.697 246.033 123.983C246.033 119.269 242.195 115.431 237.481 115.431C232.767 115.431 228.955 119.269 228.955 123.983C228.955 128.697 232.767 132.535 237.481 132.535ZM237.481 116.564C241.577 116.564 244.9 119.887 244.9 123.983C244.9 128.079 241.577 131.402 237.481 131.402C233.411 131.402 230.088 128.079 230.088 123.983C230.088 119.887 233.411 116.564 237.481 116.564Z" fill="black"/>
<path fill-rule="evenodd" clip-rule="evenodd" d="M208.012 132.535C212.726 132.535 216.564 128.697 216.564 123.983C216.564 119.269 212.726 115.431 208.012 115.431C203.298 115.431 199.46 119.269 199.46 123.983C199.46 128.697 203.298 132.535 208.012 132.535ZM208.012 116.564C212.108 116.564 215.431 119.887 215.431 123.983C215.431 128.079 212.108 131.402 208.012 131.402C203.916 131.402 200.593 128.079 200.593 123.983C200.593 119.887 203.916 116.564 208.012 116.564Z" fill="black"/>
<path fill-rule="evenodd" clip-rule="evenodd" d="M178.516 132.535C183.23 132.535 187.069 128.697 187.069 123.983C187.069 119.269 183.23 115.431 178.516 115.431C173.802 115.431 169.99 119.269 169.99 123.983C169.99 128.697 173.802 132.535 178.516 132.535ZM178.516 116.564C182.612 116.564 185.935 119.887 185.935 123.983C185.935 128.079 182.612 131.402 178.516 131.402C174.446 131.402 171.123 128.079 171.123 123.983C171.123 119.887 174.446 116.564 178.516 116.564Z" fill="black"/>
<path fill-rule="evenodd" clip-rule="evenodd" d="M149.047 132.535C153.761 132.535 157.599 128.697 157.599 123.983C157.599 119.269 153.761 115.431 149.047 115.431C144.333 115.431 140.495 119.269 140.495 123.983C140.495 128.697 144.333 132.535 149.047 132.535ZM149.047 116.564C153.143 116.564 156.466 119.887 156.466 123.983C156.466 128.079 153.143 131.402 149.047 131.402C144.951 131.402 141.628 128.079 141.628 123.983C141.628 119.887 144.951 116.564 149.047 116.564Z" fill="black"/>
<path fill-rule="evenodd" clip-rule="evenodd" d="M119.552 132.535C124.292 132.535 128.104 128.697 128.104 123.983C128.104 119.269 124.292 115.431 119.552 115.431C114.838 115.431 111.025 119.269 111.025 123.983C111.025 128.697 114.838 132.535 119.552 132.535ZM119.552 116.564C123.648 116.564 126.971 119.887 126.971 123.983C126.971 128.079 123.648 131.402 119.552 131.402C115.482 131.402 112.159 128.079 112.159 123.983C112.159 119.887 115.482 116.564 119.552 116.564Z" fill="black"/>
<path d="M266.976 124.549C267.285 124.549 267.543 124.292 267.543 123.983V86.8626C267.543 86.5535 267.285 86.2959 266.976 86.2959C266.667 86.2959 266.409 86.5535 266.409 86.8626V123.983C266.409 124.292 266.667 124.549 266.976 124.549Z" fill="black"/>
<path d="M237.481 124.549C237.816 124.549 238.074 124.292 238.074 123.983V86.8626C238.074 86.5535 237.816 86.2959 237.481 86.2959C237.172 86.2959 236.915 86.5535 236.915 86.8626V123.983C236.915 124.292 237.172 124.549 237.481 124.549Z" fill="black"/>
<path d="M208.012 124.549C208.321 124.549 208.578 124.292 208.578 123.983V86.8626C208.578 86.5535 208.321 86.2959 208.012 86.2959C207.703 86.2959 207.445 86.5535 207.445 86.8626V123.983C207.445 124.292 207.703 124.549 208.012 124.549Z" fill="black"/>
<path d="M178.517 124.549C178.851 124.549 179.109 124.292 179.109 123.983V86.8626C179.109 86.5535 178.851 86.2959 178.517 86.2959C178.207 86.2959 177.95 86.5535 177.95 86.8626V123.983C177.95 124.292 178.207 124.549 178.517 124.549Z" fill="black"/>
<path d="M149.047 124.549C149.356 124.549 149.614 124.292 149.614 123.983V86.8626C149.614 86.5535 149.356 86.2959 149.047 86.2959C148.738 86.2959 148.48 86.5535 148.48 86.8626V123.983C148.48 124.292 148.738 124.549 149.047 124.549Z" fill="black"/>
<path d="M119.552 124.549C119.887 124.549 120.144 124.292 120.144 123.983V86.8626C120.144 86.5535 119.887 86.2959 119.552 86.2959C119.243 86.2959 118.985 86.5535 118.985 86.8626V123.983C118.985 124.292 119.243 124.549 119.552 124.549Z" fill="black"/>
<path d="M252.834 165.92H271.433V149.434H252.834V165.92Z" fill="#FED101"/>
<path d="M224.446 165.92H243.045V149.434H224.446V165.92Z" fill="#FED101"/>
<path d="M196.059 165.92H214.658V149.434H196.059V165.92Z" fill="#FED101"/>
<path d="M167.697 165.92H186.27V149.434H167.697V165.92Z" fill="#FED101"/>
<path d="M139.31 165.92H157.909V149.434H139.31V165.92Z" fill="#FCB503"/>
<path d="M110.922 165.92H129.521V149.434H110.922V165.92Z" fill="#FCB503"/>
<path d="M252.834 191.654H271.433V175.142H252.834V191.654Z" fill="#FED101"/>
<path d="M224.446 191.654H243.045V175.142H224.446V191.654Z" fill="#FED101"/>
<path d="M196.059 191.654H214.658V175.142H196.059V191.654Z" fill="#FED101"/>
<path d="M167.697 191.654H186.27V175.142H167.697V191.654Z" fill="#FED101"/>
<path d="M139.31 191.654H157.909V175.142H139.31V191.654Z" fill="#FCB503"/>
<path d="M110.922 191.654H129.521V175.142H110.922V191.654Z" fill="#FCB503"/>
<path d="M252.834 217.389H271.433V200.876H252.834V217.389Z" fill="#FED101"/>
<path d="M224.446 217.389H243.045V200.876H224.446V217.389Z" fill="#FED101"/>
<path d="M196.059 217.389H214.658V200.876H196.059V217.389Z" fill="#FED101"/>
<path d="M167.697 217.389H186.27V200.876H167.697V217.389Z" fill="#FED101"/>
<path d="M139.31 217.389H157.909V200.876H139.31V217.389Z" fill="#4ADA85"/>
<path d="M110.922 217.389H129.521V200.876H110.922V217.389Z" fill="#FCB503"/>
<path d="M252.834 243.097H271.433V226.61H252.834V243.097Z" fill="#FED101"/>
<path d="M224.446 243.097H243.045V226.61H224.446V243.097Z" fill="#FED101"/>
<path d="M196.059 243.097H214.658V226.61H196.059V243.097Z" fill="#FED101"/>
<path d="M167.697 243.097H186.27V226.61H167.697V243.097Z" fill="#FED101"/>
<path d="M139.31 243.097H157.909V226.61H139.31V243.097Z" fill="#FCB503"/>
<path d="M110.922 243.097H129.521V226.61H110.922V243.097Z" fill="#FCB503"/>
<path d="M252.834 268.831H271.433V252.319H252.834V268.831Z" fill="#FED101"/>
<path d="M224.446 268.831H243.045V252.319H224.446V268.831Z" fill="#FED101"/>
<path d="M262.494 190.443C262.674 190.443 262.829 190.366 262.932 190.237L270.093 181.505C270.299 181.273 270.248 180.912 270.016 180.706C269.784 180.5 269.423 180.552 269.217 180.783L262.545 188.898L251.984 172.927C251.803 172.669 251.443 172.592 251.185 172.772C250.928 172.952 250.85 173.287 251.031 173.545L262.03 190.186C262.133 190.34 262.288 190.418 262.468 190.443C262.485 190.443 262.494 190.443 262.494 190.443Z" fill="black"/>
<path d="M149.382 216.847C149.562 216.847 149.717 216.77 149.82 216.641L160.923 203.117C161.129 202.86 161.103 202.499 160.845 202.319C160.613 202.113 160.253 202.138 160.047 202.396L149.434 215.328L132.793 190.16C132.612 189.902 132.252 189.825 131.994 190.005C131.736 190.16 131.659 190.521 131.839 190.778L148.918 216.59C148.996 216.744 149.176 216.822 149.356 216.847C149.356 216.847 149.365 216.847 149.382 216.847Z" fill="black"/>
<path d="M500.362 509.327L527.539 487.972L498.816 451.393L471.614 472.722L500.362 509.327Z" fill="white"/>
<path d="M498.816 451.393L509.069 464.453L478.466 481.429L471.614 472.722L498.816 451.393Z" fill="black"/>
<path d="M527.539 487.972L500.362 509.327L485.962 490.986L513.139 469.657L527.539 487.972Z" fill="#6A5BC1"/>
<path d="M476.586 493.665L477.719 486.401L482.949 481.455L486.581 485.319C490.084 489.003 495.262 490.574 500.208 489.466L506.828 487.946C510.641 487.071 513.294 483.645 513.217 479.755L513.062 473.701C513.01 471.099 515.87 469.451 518.085 470.816L529.136 477.591L535.988 476.818L541.398 483.619L556.674 489.363L553.995 496.241C551.47 502.758 547.503 508.632 542.428 513.423L528.569 526.535C526.534 525.582 522.49 527.205 518.961 530.554C515.406 533.902 513.551 537.844 514.401 539.93L495.957 557.138H476.096C451.779 557.138 438.023 547.916 436.014 547.091L438.435 533.104L444.85 529.446C450.079 526.432 455.102 523.032 459.79 519.219C469.347 511.491 474.68 505.824 476.586 493.665Z" fill="#6A5BC1"/>
<path d="M476.586 493.665L477.719 486.401L482.949 481.455L486.581 485.319C490.084 489.003 495.262 490.574 500.208 489.466L506.828 487.946C510.641 487.071 513.294 483.645 513.217 479.755L513.062 473.701C513.01 471.099 515.87 469.451 518.085 470.816L529.136 477.591L535.988 476.818L541.398 483.619L556.674 489.363L553.995 496.241C551.47 502.758 547.503 508.632 542.428 513.423L528.569 526.535C526.534 525.582 522.49 527.205 518.961 530.554C515.406 533.902 513.551 537.844 514.401 539.93L495.957 557.138H476.096C451.779 557.138 438.023 547.916 436.014 547.091L438.435 533.104L444.85 529.446C450.079 526.432 455.102 523.032 459.79 519.219C469.347 511.491 474.68 505.824 476.586 493.665Z" fill="#4ADA85"/>
<path fill-rule="evenodd" clip-rule="evenodd" d="M476.096 557.705H495.957C496.086 557.705 496.24 557.653 496.343 557.55L514.813 540.342C514.968 540.162 515.019 539.93 514.942 539.698C514.272 538.101 515.612 534.495 519.347 530.966C523.082 527.411 526.766 526.303 528.311 527.05C528.518 527.153 528.775 527.128 528.955 526.947L542.814 513.835C547.915 509.018 551.985 503.016 554.535 496.447L557.214 489.569C557.266 489.441 557.266 489.286 557.214 489.132C557.137 489.003 557.034 488.9 556.879 488.848L541.732 483.129L536.452 476.483C536.323 476.329 536.142 476.226 535.936 476.252L529.265 476.999L518.368 470.327C517.157 469.58 515.689 469.554 514.427 470.275C513.19 470.997 512.469 472.259 512.495 473.701L512.649 479.755C512.727 483.387 510.228 486.581 506.699 487.406L500.078 488.9C495.339 489.982 490.341 488.462 486.992 484.933L483.36 481.069C483.128 480.837 482.768 480.837 482.562 481.043L477.307 485.989C477.229 486.092 477.178 486.195 477.152 486.324L476.019 493.562C474.215 505.129 469.45 510.693 459.429 518.781C454.818 522.517 449.821 525.943 444.566 528.931L438.151 532.614C437.997 532.718 437.92 532.846 437.868 533.027L435.447 546.989C435.395 547.272 435.55 547.529 435.782 547.633C436.013 547.71 436.451 547.942 437.018 548.251C441.397 550.595 454.664 557.705 476.096 557.705ZM495.725 556.571H476.096C454.947 556.571 441.861 549.565 437.559 547.246C437.181 547.04 436.872 546.877 436.632 546.757L438.95 533.465L445.132 529.935C450.439 526.896 455.488 523.444 460.15 519.657C470.403 511.388 475.272 505.669 477.152 493.743L478.234 486.684L482.922 482.279L486.168 485.705C489.774 489.544 495.21 491.167 500.336 490.007L506.956 488.513C511.001 487.586 513.886 483.902 513.783 479.729L513.654 473.676C513.628 472.671 514.118 471.769 514.994 471.254C515.869 470.765 516.926 470.765 517.776 471.306L528.827 478.081C528.955 478.132 529.058 478.158 529.187 478.158L535.756 477.437L540.96 483.954C541.011 484.04 541.088 484.1 541.191 484.134L555.952 489.698L553.479 496.035C550.98 502.424 547.013 508.297 542.042 513.011L528.44 525.891C526.07 525.093 522.103 526.793 518.548 530.141C515.019 533.465 513.113 537.354 513.757 539.75L495.725 556.571Z" fill="black"/>
<path d="M473.984 504.201H488.615C488.925 504.201 489.182 503.943 489.182 503.634C489.182 503.299 488.925 503.068 488.615 503.068H473.984C473.649 503.068 473.391 503.299 473.391 503.634C473.391 503.943 473.649 504.201 473.984 504.201Z" fill="black"/>
<path d="M469.734 510.821H484.829C485.138 510.821 485.396 510.564 485.396 510.254C485.396 509.945 485.138 509.688 484.829 509.688H469.734C469.424 509.688 469.167 509.945 469.167 510.254C469.167 510.564 469.424 510.821 469.734 510.821Z" fill="black"/>
<path d="M462.881 517.467H478.466C478.775 517.467 479.033 517.21 479.033 516.901C479.033 516.592 478.775 516.334 478.466 516.334H462.881C462.572 516.334 462.314 516.592 462.314 516.901C462.314 517.21 462.572 517.467 462.881 517.467Z" fill="black"/>
<path d="M495.957 557.138H476.096C451.779 557.138 438.023 547.916 436.014 547.092L437.431 539.08C447.194 544 465.045 545.829 478.672 544.541C486.452 543.82 493.51 539.724 498.095 533.439C505.334 523.521 509.353 515.871 509.353 515.871L510.769 515.252C517.699 512.187 522.773 506.004 524.448 498.586L529.136 477.591L535.988 476.818L541.398 483.619L556.674 489.363L553.995 496.241C551.47 502.759 547.503 508.632 542.428 513.423L528.569 526.535C526.534 525.582 522.49 527.205 518.961 530.554C515.406 533.903 513.551 537.844 514.401 539.93L495.957 557.138Z" fill="black"/>
<path fill-rule="evenodd" clip-rule="evenodd" d="M517.879 471.589C518.033 471.589 518.214 471.512 518.317 471.357C518.986 470.481 524.963 462.753 525.529 460.306C526.173 457.601 524.499 454.896 521.794 454.278C519.089 453.634 516.385 455.309 515.766 458.013C515.2 460.461 517.106 470.043 517.312 471.125C517.364 471.357 517.518 471.512 517.75 471.563C517.784 471.58 517.827 471.589 517.879 471.589ZM520.661 455.283C520.953 455.283 521.245 455.317 521.537 455.386C523.623 455.875 524.911 457.962 524.422 460.048C524.035 461.697 520.3 466.875 518.188 469.657C517.544 466.205 516.488 459.92 516.874 458.271C517.286 456.494 518.883 455.283 520.661 455.283Z" fill="black"/>
<path d="M268.548 523.109H304.148V476.561H268.548V523.109Z" fill="white"/>
<path d="M304.148 489.569L268.548 485.911V476.561H304.148V489.569Z" fill="black"/>
<path d="M268.548 523.109H304.148V499.848H268.548V523.109Z" fill="#6A5BC1"/>
<path d="M192.324 533.31L199.949 530.94C213.524 526.69 226.224 520.018 237.378 511.208L267.105 487.74H274.885V494.103C274.885 499.204 277.564 503.892 281.943 506.468L288.795 510.538C292.427 512.676 297.064 511.955 299.872 508.838L304.251 503.969C306.132 501.908 309.583 502.733 310.305 505.438L313.963 518.936L319.913 523.444L319.321 532.846L326.843 548.611L319.63 552.012C312.803 555.232 305.359 556.906 297.811 556.906H277.229C276.353 554.639 272 552.913 266.719 552.913C261.464 552.913 257.084 554.639 256.209 556.906H224.112C211.721 556.906 199.665 553.042 189.568 545.829L188.125 544.799L192.324 533.31Z" fill="#4ADA85"/>
<path d="M319.321 532.846L326.842 548.611L319.63 552.012C312.803 555.232 305.359 556.906 297.811 556.906H277.229C276.353 554.639 271.999 552.913 266.719 552.913C261.464 552.913 257.084 554.639 256.209 556.906H224.112C211.721 556.906 199.665 553.042 189.567 545.829L188.125 544.799L190.186 539.183C228.207 549.384 270.067 534.289 270.067 534.289L271.639 534.855C279.367 537.586 287.919 536.504 294.72 531.919L313.962 518.936L319.913 523.444L319.321 532.846Z" fill="black"/>
<path fill-rule="evenodd" clip-rule="evenodd" d="M309.918 506.855C310.073 506.855 310.228 506.803 310.331 506.7C310.665 506.365 318.703 498.534 319.681 495.958C320.763 493.202 319.372 490.085 316.616 489.029C315.276 488.513 313.808 488.539 312.494 489.106C311.181 489.698 310.176 490.755 309.661 492.094C308.682 494.644 309.326 505.85 309.352 506.314C309.377 506.545 309.506 506.726 309.738 506.803C309.79 506.837 309.85 506.855 309.918 506.855ZM314.684 489.801C315.199 489.801 315.714 489.879 316.204 490.085C318.368 490.935 319.475 493.382 318.625 495.546C317.956 497.272 313.113 502.321 310.434 505C310.253 501.213 310.073 494.206 310.717 492.506C311.129 491.45 311.928 490.626 312.958 490.162C313.499 489.904 314.092 489.801 314.684 489.801Z" fill="black"/>
<path d="M263.447 506.52C263.653 506.52 263.834 506.417 263.937 506.211C264.091 505.953 263.988 505.592 263.705 505.438L252.37 499.23C252.087 499.075 251.752 499.178 251.598 499.462C251.443 499.719 251.546 500.08 251.829 500.234L263.164 506.443C263.25 506.494 263.344 506.52 263.447 506.52Z" fill="black"/>
<path d="M257.368 511.826C257.574 511.826 257.78 511.723 257.883 511.543C258.012 511.26 257.935 510.925 257.651 510.77L245.853 504.304C245.57 504.15 245.235 504.253 245.08 504.51C244.926 504.794 245.029 505.154 245.286 505.283L257.11 511.775C257.196 511.809 257.282 511.826 257.368 511.826Z" fill="black"/>
<path d="M251.314 517.159C251.495 517.159 251.701 517.056 251.804 516.85C251.958 516.592 251.855 516.231 251.572 516.077L239.439 509.431C239.156 509.276 238.821 509.379 238.666 509.663C238.512 509.92 238.615 510.281 238.898 510.435L251.031 517.081C251.117 517.133 251.211 517.159 251.314 517.159Z" fill="black"/>
<path d="M462.263 490.136L510.769 454.613L377.95 273.366L329.444 308.889L462.263 490.136Z" fill="#FED101"/>
<path d="M272.411 349.795L331.737 306.338C335.266 303.737 337.352 299.589 337.352 295.21V290.779H382.072V344.154L326.791 384.674C319.217 390.213 314.761 399.023 314.761 408.399V481.352H254.508V385.087C254.508 371.15 261.154 358.039 272.411 349.795Z" fill="#FED101"/>
<path d="M331.453 306.545L331.737 306.339C335.266 303.737 337.352 299.589 337.352 295.21V290.78L377.95 273.366L405.23 310.615C394.771 315.071 378.259 317.828 372.669 308.734C368.496 301.934 359.12 298.714 331.453 306.545Z" fill="black"/>
<path d="M462.263 490.703C462.392 490.703 462.521 490.677 462.624 490.6L511.104 455.077C511.362 454.896 511.413 454.536 511.233 454.278L386.76 284.417C386.554 284.159 386.219 284.108 385.962 284.288C385.704 284.468 385.653 284.829 385.833 285.086L509.971 454.484L462.392 489.337L357.806 346.601C353.762 341.089 347.27 337.817 340.444 337.817H338.667C338.357 337.817 338.1 338.049 338.1 338.384C338.1 338.693 338.357 338.951 338.667 338.951H340.444C346.91 338.951 353.066 342.068 356.879 347.271L461.825 490.471C461.928 490.626 462.108 490.703 462.263 490.703Z" fill="black"/>
<path d="M362.932 209.274L384.906 220.094C395.622 225.374 391.861 241.5 379.934 241.5H350.928V217.312L362.932 209.274Z" fill="black"/>
<path d="M358.244 238.383H367.415V217.208H358.244V238.383Z" fill="white"/>
<path d="M367.415 217.183C367.415 222.026 363.808 225.967 359.377 225.967C354.947 225.967 351.34 222.026 351.34 217.183C351.34 212.314 354.947 208.373 359.377 208.373C363.808 208.373 367.415 212.314 367.415 217.183Z" fill="white"/>
<path d="M361.129 222.18C360.537 222.695 359.816 223.056 358.966 223.133C357.111 223.339 355.411 222.103 354.947 220.351L361.129 222.18Z" fill="black"/>
<path d="M359.377 226.534C360.253 226.534 361.129 226.379 361.953 226.096C362.237 225.993 362.417 225.684 362.314 225.374C362.211 225.091 361.876 224.937 361.593 225.04C360.871 225.271 360.124 225.4 359.377 225.4C355.256 225.4 351.933 221.717 351.933 217.183C351.933 212.623 355.256 208.94 359.377 208.94C363.216 208.94 366.41 212.108 366.796 216.333C366.822 216.642 367.08 216.874 367.414 216.848C367.724 216.796 367.955 216.539 367.93 216.23C367.492 211.413 363.808 207.806 359.377 207.806C354.637 207.806 350.773 212.005 350.773 217.183C350.773 222.335 354.637 226.534 359.377 226.534Z" fill="black"/>
<path d="M359.069 214.066L351.392 217.853C351.375 217.629 351.358 217.406 351.341 217.183C351.341 212.314 354.947 208.373 359.378 208.373C363.808 208.373 367.698 212.52 367.698 217.363C367.698 217.69 367.681 218.016 367.647 218.342L359.069 214.066Z" fill="black"/>
<path d="M358.837 204.432C358.837 207.703 361.49 210.356 364.762 210.356C368.033 210.356 370.686 207.703 370.686 204.432C370.686 201.16 368.033 198.507 364.762 198.507C361.49 198.507 358.837 201.16 358.837 204.432Z" fill="black"/>
<path d="M462.211 342.84L505.874 412.135L557.549 369.76L462.211 342.84Z" fill="black"/>
<path d="M508.373 405.797L557.549 369.759L511.413 306.802L462.211 342.84L508.373 405.797Z" fill="#FED101"/>
<path d="M466.925 315.251H493.716C497.477 315.251 500.903 317.441 502.474 320.841L506.055 328.672C506.982 330.656 507.446 332.82 507.446 334.984V340.033C507.446 342.196 505.694 343.948 503.556 343.948H503.015C500.851 343.948 499.099 342.196 499.099 340.033V336.735C499.099 334.623 498.636 332.511 497.76 330.579L495.879 326.509C495.055 324.731 493.278 323.598 491.32 323.598H466.925V315.251Z" fill="white"/>
<path d="M479.779 315.226L505.668 315.303C507.497 315.329 509.3 315.741 510.975 316.514L514.787 318.317C516.41 319.09 517.106 321.047 516.333 322.67L516.153 323.082C515.38 324.731 513.422 325.427 511.799 324.654L509.3 323.469C507.678 322.696 505.926 322.284 504.123 322.258L481.789 322.232L479.779 315.226Z" fill="white"/>
<path d="M513.19 325.53C514.607 325.53 515.998 324.731 516.668 323.34L516.848 322.928C517.286 322.001 517.338 320.97 517.003 319.991C516.642 319.038 515.947 318.265 515.019 317.827L511.207 315.998C509.481 315.174 507.6 314.736 505.668 314.736L491.887 314.71C491.578 314.71 491.32 314.968 491.32 315.277C491.32 315.586 491.578 315.844 491.887 315.844L505.668 315.87C507.42 315.895 509.12 316.282 510.717 317.029L514.53 318.832C515.199 319.141 515.689 319.708 515.921 320.378C516.178 321.047 516.127 321.794 515.818 322.438L515.637 322.851C514.993 324.19 513.371 324.757 512.031 324.139L509.532 322.954C507.832 322.129 506.029 321.717 504.123 321.691H503.324C502.989 321.691 502.732 321.949 502.732 322.258C502.732 322.567 502.989 322.825 503.298 322.825L504.123 322.851C505.849 322.851 507.497 323.237 509.043 323.984L511.542 325.169C512.083 325.401 512.623 325.53 513.19 325.53Z" fill="black"/>
<path d="M474.19 321.485L489.697 321.459C493.458 321.459 496.884 323.649 498.456 327.075L502.036 334.906C502.964 336.89 503.427 339.028 503.427 341.217V346.266C503.427 348.43 501.676 350.156 499.538 350.156H498.997C496.833 350.156 495.081 348.43 495.081 346.266V342.969C495.081 340.831 494.643 338.719 493.742 336.787L491.861 332.742C491.062 330.965 489.259 329.806 487.302 329.806H474.19V321.485Z" fill="white"/>
<path d="M469.81 326.817H485.318C489.079 326.817 492.505 329.007 494.076 332.407L497.657 340.238C498.584 342.222 499.048 344.386 499.048 346.55V351.599C499.048 353.762 497.296 355.488 495.158 355.488H494.617C492.453 355.488 490.702 353.762 490.702 351.599V348.301C490.702 346.163 490.238 344.077 489.362 342.119L487.482 338.075C486.657 336.297 484.88 335.138 482.922 335.138H469.81V326.817Z" fill="white"/>
<path d="M465.431 340.547L432.02 299.46L448.378 279.058L475.143 312.958C476.225 314.324 477.848 315.122 479.573 315.122H487.508V335.189H472.721L465.431 340.547Z" fill="white"/>
<path d="M475.478 313.345L459.429 333.154L432.021 299.46L448.378 279.058L475.143 312.958C475.246 313.096 475.358 313.224 475.478 313.345Z" fill="#020202"/>
<path d="M494.617 356.081H495.158C497.606 356.081 499.615 354.072 499.615 351.599V346.55C499.615 344.283 499.125 342.068 498.172 339.981L494.592 332.176C492.917 328.569 489.285 326.225 485.318 326.225H482.819C482.51 326.225 482.253 326.483 482.253 326.818C482.253 327.127 482.51 327.384 482.819 327.384H485.318C488.847 327.384 492.067 329.445 493.561 332.639L497.142 340.47C498.043 342.402 498.481 344.437 498.481 346.55V351.599C498.481 353.428 496.987 354.922 495.158 354.922H494.617C492.763 354.922 491.269 353.428 491.269 351.599V348.301C491.269 346.112 490.779 343.896 489.878 341.887L487.997 337.843C487.095 335.859 485.112 334.571 482.922 334.571H472.902C472.593 334.571 472.335 334.829 472.335 335.138C472.335 335.473 472.593 335.731 472.902 335.731H482.922C484.648 335.731 486.245 336.735 486.967 338.307L488.847 342.377C489.697 344.206 490.135 346.266 490.135 348.301V351.599C490.135 354.072 492.144 356.081 494.617 356.081Z" fill="black"/>
<path d="M499.177 350.723H499.538C501.985 350.723 503.994 348.739 503.994 346.266V341.217C503.994 338.976 503.505 336.709 502.552 334.648L498.971 326.843C497.296 323.237 493.664 320.893 489.697 320.893H485.112C484.803 320.893 484.545 321.15 484.545 321.459C484.545 321.794 484.803 322.052 485.112 322.052H489.697C493.226 322.052 496.446 324.113 497.94 327.307L501.521 335.138C502.397 337.018 502.861 339.131 502.861 341.217V346.266C502.861 348.095 501.367 349.589 499.538 349.589H499.177C498.868 349.589 498.61 349.847 498.61 350.156C498.61 350.465 498.868 350.723 499.177 350.723Z" fill="black"/>
<path d="M474.988 346.807H482.845C485.163 346.807 487.018 344.927 487.018 342.634V342.299C487.018 340.007 485.163 338.126 482.845 338.126H478.131C476.663 338.126 475.297 337.482 474.37 336.349L471.176 332.201C470.97 331.944 470.609 331.918 470.377 332.098C470.119 332.279 470.068 332.639 470.274 332.897L473.494 337.044C474.627 338.461 476.328 339.26 478.131 339.26H482.845C484.519 339.26 485.885 340.625 485.885 342.299V342.634C485.885 344.308 484.519 345.648 482.845 345.648H474.988C472.051 345.648 469.321 344.36 467.466 342.067L432.767 299.46L448.378 279.96L474.808 313.448C475.993 314.942 477.77 315.818 479.676 315.818H493.716C497.245 315.818 500.465 317.879 501.959 321.099L505.539 328.904C506.415 330.81 506.879 332.897 506.879 334.983V340.032C506.879 341.861 505.385 343.355 503.556 343.355C503.221 343.355 502.989 343.613 502.989 343.948C502.989 344.257 503.221 344.515 503.556 344.515C506.003 344.515 508.012 342.505 508.012 340.032V334.983C508.012 332.742 507.523 330.475 506.57 328.44L502.989 320.609C501.315 317.003 497.683 314.684 493.716 314.684H479.676C478.105 314.684 476.663 313.963 475.709 312.752L448.816 278.698C448.713 278.569 448.558 278.492 448.378 278.492C448.198 278.492 448.043 278.569 447.94 278.698L431.583 299.1C431.428 299.306 431.428 299.615 431.583 299.821L466.59 342.789C468.651 345.339 471.717 346.807 474.988 346.807Z" fill="black"/>
<path d="M245.312 287.765C245.312 296.395 242.994 303.376 240.134 303.376C237.249 303.376 234.931 296.395 234.931 287.765C234.931 279.136 237.249 272.155 240.134 272.155C242.994 272.155 245.312 279.136 245.312 287.765Z" fill="black"/>
<path d="M331.608 295.622H403.607L386.709 236.22C384.802 235.473 378.8 231.222 369.037 231.222H363.705C356.724 231.222 349.923 233.438 344.282 237.559L330.938 247.348L335.086 279.806L331.608 295.622Z" fill="#6A5BC1"/>
<path d="M372.669 264.118L386.709 236.22L427.512 256.313C434.519 259.764 440.727 264.71 445.647 270.79L476.894 309.404L452.628 329.059L423.21 292.711C419.913 288.641 415.766 285.344 411.077 283.026L372.669 264.118Z" fill="#6A5BC1"/>
<path d="M452.629 329.625C452.757 329.625 452.886 329.574 452.989 329.497L477.255 309.842C477.384 309.739 477.461 309.61 477.461 309.455C477.487 309.301 477.435 309.146 477.358 309.043L446.086 270.429C441.14 264.324 434.803 259.275 427.77 255.797L386.735 235.112C386.451 234.957 386.116 235.086 385.987 235.37C385.833 235.653 385.962 235.988 386.219 236.117L427.255 256.802C434.159 260.202 440.367 265.174 445.21 271.15L476.096 309.327L452.706 328.26L423.649 292.351C420.326 288.255 416.075 284.855 411.335 282.51L386.966 270.532C386.683 270.377 386.348 270.506 386.219 270.79C386.065 271.073 386.194 271.408 386.477 271.537L410.82 283.541C415.405 285.808 419.553 289.105 422.773 293.072L452.191 329.419C452.294 329.548 452.474 329.625 452.629 329.625Z" fill="black"/>
<path d="M239.902 290.393L205.358 305.36L216.203 307.601L228.98 302.217C234.003 300.079 237.893 295.957 239.748 290.831L239.902 290.393Z" fill="white"/>
<path d="M228.877 275.787L218.367 270.171L195.75 279.368L209.48 304.561L227.563 302.784L240.057 297.606H247.141L246.394 277.925L230.964 276.354C230.242 276.277 229.547 276.096 228.877 275.787Z" fill="white"/>
<path d="M207.625 272.928L227.357 302.887L215.894 307.678L196.445 278.028L207.625 272.928Z" fill="white"/>
<path fill-rule="evenodd" clip-rule="evenodd" d="M161.799 275.117C173.313 275.117 184.957 271.872 195.287 265.122C209.017 256.132 218.419 242.376 221.768 226.328C225.117 210.279 222.026 193.896 213.061 180.192C194.54 151.856 156.441 143.896 128.13 162.417C114.4 171.382 104.998 185.163 101.649 201.212C98.3003 217.26 101.391 233.644 110.356 247.348C122.128 265.329 141.783 275.117 161.799 275.117ZM161.618 153.556C181.273 153.556 200.568 163.164 212.108 180.81C230.269 208.579 222.463 245.983 194.668 264.169C166.899 282.33 129.496 274.525 111.309 246.73C102.499 233.283 99.4852 217.183 102.757 201.444C106.054 185.704 115.276 172.18 128.749 163.37C138.898 156.75 150.31 153.556 161.618 153.556Z" fill="black"/>
<path fill-rule="evenodd" clip-rule="evenodd" d="M161.799 264.298C171.278 264.298 180.861 261.645 189.388 256.081C212.7 240.805 219.269 209.429 204.019 186.091C188.744 162.778 157.368 156.209 134.029 171.459C122.746 178.852 114.993 190.212 112.236 203.427C109.454 216.642 112.004 230.14 119.398 241.449C129.083 256.261 145.286 264.298 161.799 264.298ZM161.644 164.375C177.77 164.375 193.586 172.232 203.066 186.709C217.981 209.506 211.567 240.212 188.769 255.127C165.972 270.042 135.266 263.628 120.351 240.831C113.138 229.78 110.639 216.565 113.344 203.659C116.049 190.727 123.622 179.651 134.648 172.412C142.994 166.977 152.37 164.375 161.644 164.375Z" fill="black"/>
<path d="M116.667 172.927C98.5058 192.917 95.3631 223.391 110.845 247.039C129.212 275.143 166.899 283.026 194.977 264.633C197.733 262.83 200.309 260.846 202.679 258.682C199.253 262.443 195.338 265.818 190.907 268.729C162.803 287.096 125.142 279.213 106.749 251.135C90.1853 225.787 94.9509 192.659 116.667 172.927Z" fill="black"/>
<path d="M207.29 273.031C207.393 273.031 207.497 272.996 207.6 272.928C207.857 272.747 207.934 272.412 207.754 272.155L200.387 260.872C200.206 260.614 199.846 260.537 199.588 260.692C199.331 260.872 199.253 261.233 199.434 261.49L206.801 272.773C206.904 272.928 207.084 273.031 207.29 273.031Z" fill="black"/>
<path d="M232.072 332.871C232.175 332.871 232.278 332.837 232.381 332.768L242.427 326.199C242.685 326.019 242.762 325.658 242.608 325.401L212.211 278.955C212.03 278.698 211.696 278.621 211.412 278.775C211.155 278.955 211.077 279.316 211.258 279.574L241.32 325.555L232.226 331.506L213.241 302.5C213.087 302.242 212.726 302.165 212.468 302.32C212.211 302.5 212.134 302.861 212.288 303.118L231.582 332.613C231.66 332.742 231.788 332.82 231.943 332.845C231.977 332.863 232.02 332.871 232.072 332.871Z" fill="black"/>
<path d="M196.471 278.466C196.591 278.466 196.694 278.44 196.78 278.389C197.064 278.208 197.141 277.848 196.961 277.59L190.315 267.441C190.16 267.183 189.799 267.106 189.542 267.286C189.258 267.467 189.207 267.801 189.361 268.059L196.008 278.209C196.111 278.389 196.291 278.466 196.471 278.466Z" fill="black"/>
<path d="M236.142 327.539C239.13 325.581 242.067 324.808 242.711 325.787C243.355 326.792 241.474 329.188 238.512 331.12C235.524 333.077 232.587 333.876 231.943 332.871C231.273 331.892 233.179 329.497 236.142 327.539Z" fill="black"/>
<path d="M201.108 279.857C201.881 281.712 201.005 283.85 199.15 284.649L195.003 286.4L193.946 290.651L191.68 289.311C188.099 287.173 188.022 281.429 192.298 279.6L196.316 277.925C198.171 277.127 200.309 278.003 201.108 279.857Z" fill="white"/>
<path d="M190.855 289.285C191.01 289.285 191.164 289.208 191.293 289.079C191.499 288.847 191.473 288.487 191.241 288.281C189.979 287.173 189.387 285.421 189.67 283.695C189.928 282.098 190.984 280.784 192.529 280.14L196.548 278.44C197.295 278.105 198.145 278.105 198.892 278.414C199.665 278.724 200.257 279.316 200.567 280.089C200.901 280.836 200.901 281.66 200.592 282.433C200.283 283.206 199.691 283.798 198.944 284.107L197.398 284.751C197.115 284.88 196.986 285.215 197.115 285.498C197.218 285.782 197.553 285.936 197.862 285.808L199.382 285.164C201.52 284.262 202.524 281.789 201.623 279.625C200.721 277.487 198.248 276.482 196.084 277.384L192.092 279.084C190.16 279.883 188.872 281.506 188.537 283.515C188.202 285.602 188.949 287.765 190.494 289.131C190.597 289.234 190.726 289.285 190.855 289.285Z" fill="black"/>
<path d="M204.766 286.22C205.564 288.075 204.688 290.213 202.834 291.011L201.494 291.552L203.349 295.957L200.799 297.039C196.729 298.765 193.225 296.756 193.277 296.782C189.542 294.978 188.46 289.157 192.736 287.353L200 284.288C201.855 283.489 203.993 284.365 204.766 286.22Z" fill="white"/>
<path d="M195.904 298.198C196.188 298.198 196.419 297.992 196.471 297.709C196.522 297.4 196.316 297.116 195.981 297.065C194.616 296.833 193.715 296.369 193.612 296.318C193.577 296.301 193.551 296.283 193.534 296.266C191.731 295.39 190.495 293.381 190.546 291.372C190.572 290.445 190.907 288.744 192.942 287.869L200.206 284.803C201.777 284.133 203.581 284.88 204.25 286.452C204.56 287.199 204.585 288.049 204.276 288.796C203.967 289.569 203.375 290.161 202.602 290.47L201.674 290.882C201.391 290.986 201.262 291.32 201.365 291.63C201.494 291.913 201.829 292.042 202.112 291.913L203.065 291.526C205.204 290.625 206.208 288.152 205.307 286.014C204.405 283.85 201.906 282.845 199.768 283.747L192.504 286.838C190.572 287.637 189.438 289.285 189.413 291.346C189.335 293.793 190.855 296.241 193.045 297.297V297.271C193.689 297.709 195.183 298.095 195.827 298.198C195.844 298.198 195.87 298.198 195.904 298.198Z" fill="black"/>
<path d="M209.222 292.171C209.995 294.025 209.119 296.164 207.264 296.962L206.878 297.117L209.196 302.629C209.145 302.655 204.92 304.716 200.232 302.552C199.846 302.294 197.553 301.753 196.471 299.177L196.11 298.327C195.209 296.189 196.213 293.716 198.377 292.789L204.431 290.239C206.286 289.44 208.424 290.316 209.222 292.171Z" fill="white"/>
<path d="M200.979 303.428C201.211 303.428 201.417 303.273 201.52 303.067C201.623 302.758 201.468 302.423 201.185 302.32C200.962 302.234 200.738 302.14 200.515 302.037C200.412 301.985 200.283 301.934 200.103 301.856C199.356 301.547 197.81 300.877 196.986 298.945L196.651 298.121C196.265 297.22 196.239 296.215 196.625 295.313C196.986 294.412 197.682 293.69 198.583 293.33L204.663 290.754C205.41 290.445 206.26 290.419 207.007 290.754C207.779 291.063 208.372 291.63 208.681 292.402C209.351 293.974 208.63 295.777 207.058 296.421L206.646 296.601C206.363 296.73 206.208 297.065 206.337 297.348C206.466 297.632 206.801 297.786 207.084 297.657L207.496 297.477C209.634 296.576 210.639 294.103 209.737 291.964C209.299 290.908 208.475 290.11 207.445 289.698C206.388 289.26 205.255 289.26 204.225 289.698L198.145 292.274C196.96 292.763 196.059 293.69 195.569 294.875C195.08 296.06 195.08 297.374 195.595 298.559L195.956 299.409C196.935 301.728 198.841 302.552 199.665 302.912C199.785 302.964 199.871 302.998 199.923 303.016C199.948 303.041 199.974 303.067 200 303.067C200.258 303.187 200.515 303.299 200.773 303.402C200.841 303.419 200.91 303.428 200.979 303.428Z" fill="black"/>
<path d="M214.503 297.863C215.302 299.718 214.426 301.882 212.571 302.655L210.253 303.634L213.627 304.947L215.585 307.833L215.199 308.013C210.588 309.971 203.581 309.172 201.752 304.87L201.185 303.505C200.387 301.65 201.262 299.512 203.117 298.714L209.738 295.931C211.592 295.159 213.73 296.009 214.503 297.863Z" fill="white"/>
<path d="M225.915 271.975L232.458 279.059L227.666 281.094C224.575 282.382 221.02 281.892 218.393 279.806C217.672 279.393 216.255 277.333 213.936 278.286C213.55 278.415 211.206 279.806 207.161 279.548C207.084 279.522 203.323 279.651 201.778 275.993L201.726 275.916C201.082 274.37 202.293 272.696 203.941 272.825C205.899 272.953 207.316 273.159 209.351 272.309L215.482 269.733C219.088 268.214 223.261 269.115 225.915 271.975Z" fill="white"/>
<path d="M209.969 309.584C211.875 309.584 213.782 309.224 215.404 308.554L239.902 298.224H247.012C247.167 298.224 247.295 298.147 247.424 298.044C247.527 297.941 247.579 297.786 247.579 297.632L247.089 277.9C247.089 277.616 246.883 277.384 246.6 277.359L232.432 275.968C230.964 275.813 229.598 275.118 228.568 274.036L226.327 271.588C223.519 268.549 219.088 267.596 215.276 269.193L209.145 271.795C207.419 272.516 206.208 272.413 204.534 272.284L203.993 272.232C202.988 272.181 202.087 272.619 201.52 273.417C200.927 274.216 200.824 275.221 201.211 276.122L201.236 276.225C202.653 279.574 205.77 280.064 207.058 280.115C207.075 280.115 207.101 280.115 207.136 280.115C210.716 280.347 213.035 279.316 213.885 278.93C213.988 278.896 214.065 278.87 214.116 278.853C214.116 278.827 214.142 278.827 214.168 278.827C215.636 278.209 216.692 279.11 217.465 279.78C217.697 279.986 217.877 280.141 218.084 280.27C220.84 282.485 224.601 283 227.872 281.609L228.284 281.455C228.568 281.326 228.697 280.991 228.594 280.707C228.465 280.398 228.13 280.27 227.847 280.398L227.434 280.553C224.524 281.789 221.2 281.326 218.753 279.342C218.736 279.325 218.71 279.308 218.676 279.291C218.573 279.239 218.393 279.085 218.212 278.93C217.388 278.209 215.868 276.869 213.73 277.771C213.661 277.788 213.558 277.831 213.421 277.9C212.622 278.26 210.536 279.188 207.213 278.982C207.178 278.982 207.144 278.982 207.11 278.982C205.796 278.904 203.426 278.441 202.293 275.787L202.267 275.684C202.035 275.143 202.087 274.551 202.447 274.061C202.782 273.598 203.323 273.34 203.89 273.392L204.456 273.417C206.157 273.546 207.625 273.675 209.583 272.825L215.714 270.249C219.088 268.832 223.004 269.682 225.477 272.361L227.744 274.808C228.928 276.096 230.551 276.921 232.329 277.101L245.982 278.441L246.42 297.065H239.773C239.705 297.065 239.636 297.082 239.567 297.117L214.967 307.498C212.777 308.425 209.995 308.709 207.548 308.219C204.92 307.73 203.04 306.442 202.293 304.664L201.7 303.273C201.391 302.526 201.365 301.676 201.674 300.929C201.984 300.156 202.576 299.564 203.349 299.255L209.943 296.447C210.716 296.138 211.54 296.138 212.313 296.447C213.06 296.756 213.653 297.348 213.988 298.095C214.632 299.667 213.91 301.47 212.339 302.14L207.754 304.072C207.47 304.201 207.316 304.536 207.445 304.819C207.573 305.102 207.908 305.231 208.192 305.128L212.777 303.17C214.915 302.269 215.945 299.796 215.018 297.658C214.58 296.601 213.782 295.803 212.725 295.391C211.695 294.953 210.536 294.979 209.505 295.416L202.911 298.199C201.855 298.636 201.056 299.461 200.644 300.491C200.206 301.547 200.206 302.681 200.644 303.711L201.236 305.102C202.138 307.266 204.302 308.76 207.316 309.353C208.192 309.507 209.068 309.584 209.969 309.584Z" fill="black"/>
<path d="M199.227 278.518C199.313 278.518 199.39 278.509 199.459 278.492L202.344 277.281C202.628 277.152 202.756 276.818 202.628 276.534C202.525 276.251 202.19 276.096 201.906 276.225L199.021 277.436C198.738 277.565 198.583 277.9 198.712 278.183C198.789 278.389 199.021 278.518 199.227 278.518Z" fill="black"/>
<path d="M245.312 287.765C245.312 279.187 243.019 272.206 240.16 272.155H289.439C294.411 272.155 299.254 270.558 303.272 267.621L342.299 239.027L360.768 264.221L317.002 296.343C310.794 300.929 303.272 303.376 295.57 303.376H240.16C243.019 303.35 245.312 296.369 245.312 287.765Z" fill="#6A5BC1"/>
<path d="M331.84 295.081C332.098 295.081 332.329 294.901 332.407 294.644L336.606 276.302C337.43 272.593 336.58 268.703 334.261 265.895C332.664 263.938 331.788 261.439 331.866 258.889C331.969 254.922 334.236 251.367 337.816 249.615C341.32 247.889 343.793 244.849 344.617 241.295L344.952 239.826C345.003 239.517 344.823 239.208 344.514 239.157C344.205 239.079 343.896 239.26 343.818 239.569L343.509 241.037C342.762 244.257 340.495 247.013 337.301 248.585C333.36 250.542 330.835 254.458 330.732 258.863C330.655 261.697 331.608 264.453 333.386 266.617C335.472 269.167 336.245 272.67 335.472 276.045L331.273 294.386C331.222 294.695 331.402 295.004 331.711 295.081C331.763 295.081 331.806 295.081 331.84 295.081Z" fill="black"/>
<path d="M359.068 268.96C359.248 268.96 359.403 268.883 359.532 268.703C359.712 268.445 359.635 268.11 359.377 267.93C356.415 265.869 354.689 262.495 354.766 258.888C354.921 253.092 359.583 248.533 365.405 248.507C365.714 248.507 365.972 248.275 365.972 247.94C365.972 247.631 365.714 247.374 365.405 247.374C358.965 247.399 353.787 252.423 353.633 258.863C353.53 262.855 355.436 266.59 358.733 268.857C358.836 268.926 358.948 268.96 359.068 268.96Z" fill="black"/>
<path d="M240.134 303.942C243.869 303.942 245.878 295.622 245.878 287.765C245.878 279.908 243.869 271.588 240.134 271.588C238.434 271.588 236.991 273.314 235.909 276.56C235.806 276.869 235.961 277.178 236.27 277.281C236.579 277.384 236.888 277.229 236.991 276.92C237.867 274.293 239.026 272.721 240.134 272.721C242.324 272.721 244.745 278.904 244.745 287.765C244.745 296.627 242.324 302.809 240.134 302.809C239.155 302.809 238.099 301.573 237.275 299.409C237.172 299.125 236.837 298.971 236.528 299.074C236.244 299.203 236.09 299.512 236.218 299.821C237.249 302.526 238.614 303.942 240.134 303.942Z" fill="black"/>
<path d="M187.867 456.905L159.84 428.569C159.119 427.848 159.969 426.689 160.87 427.152L190.185 442.222C190.752 442.505 191.448 442.145 191.499 441.501L193.019 422.232C193.07 421.305 194.307 421.099 194.719 421.923L206.363 446.447C206.62 447.013 207.316 447.142 207.779 446.73L219.243 436.297C219.887 435.679 220.943 436.323 220.711 437.199L216.898 450.929C216.744 451.47 217.13 452.037 217.697 452.062L231.633 453.093C232.509 453.17 232.767 454.303 232.02 454.767L215.997 464.273C215.533 464.556 215.404 465.174 215.765 465.612L231.891 485.653C232.509 486.426 231.607 487.482 230.732 486.993L208.423 474.036C207.908 473.726 207.238 474.01 207.11 474.602L203.787 490.058C203.58 490.986 202.318 491.011 202.061 490.136L197.733 475.452C197.553 474.783 196.677 474.577 196.213 475.118L172.952 502.037C172.256 502.861 170.994 501.985 171.484 501.032L187.918 470.455C188.228 469.863 187.841 469.167 187.171 469.115L170.84 468.343C169.912 468.291 169.655 467.029 170.479 466.642L187.609 458.348C188.15 458.064 188.279 457.343 187.867 456.905Z" fill="#FDA4FF"/>
<path fill-rule="evenodd" clip-rule="evenodd" d="M501.109 221.178C501.496 221.178 501.882 221.075 502.217 220.843L515.354 212.316C515.689 212.11 516.101 212.11 516.385 212.342L523.958 217.803C524.551 218.215 525.298 218.293 525.968 218.035C526.637 217.752 527.101 217.159 527.204 216.438L528.569 206.984C528.647 206.546 529.007 206.237 529.445 206.211L540.728 205.748C541.475 205.722 542.171 205.258 542.48 204.563C542.815 203.867 542.737 203.069 542.248 202.45L536.993 195.572C536.709 195.212 536.761 194.671 537.122 194.336L545.983 186.582C546.601 186.041 546.833 185.243 546.601 184.444C546.369 183.671 545.725 183.13 544.901 183.001L529.728 180.941C529.342 180.863 529.033 180.58 528.956 180.168L527.024 168.164C526.921 167.365 526.354 166.747 525.607 166.515C524.834 166.283 524.036 166.515 523.495 167.108L516.308 174.964C516.101 175.196 515.818 175.299 515.535 175.273C515.251 175.222 514.994 175.067 514.839 174.81L502.835 154.537C502.346 153.712 501.418 153.352 500.491 153.635C499.589 153.893 498.997 154.743 499.048 155.696L500.104 178.442C500.104 178.725 500.001 178.983 499.795 179.163C499.589 179.344 499.332 179.421 499.074 179.395L485.782 177.566C484.958 177.437 484.185 177.824 483.747 178.519C483.309 179.215 483.335 180.065 483.798 180.76L490.213 190.034C490.625 190.626 490.599 190.884 490.135 191.502C489.749 191.992 489.079 192.79 488.358 193.615C487.508 194.593 486.632 195.624 486.091 196.345C485.602 196.989 485.421 197.865 485.602 198.612C485.808 199.333 486.271 199.874 486.941 200.158C490.625 201.729 499.589 205.387 500.414 205.722C500.671 205.928 500.8 206.237 500.774 206.572L499.074 218.859C498.945 219.658 499.306 220.431 500.001 220.869C500.336 221.075 500.723 221.178 501.109 221.178ZM515.87 211.028C515.457 211.028 515.071 211.131 514.736 211.363L501.599 219.89C501.289 220.096 500.929 220.096 500.62 219.916C500.311 219.709 500.156 219.375 500.208 219.014L501.882 206.726C502.011 205.954 501.676 205.207 501.006 204.769C500.989 204.734 500.955 204.709 500.903 204.691C500.826 204.666 491.217 200.75 487.379 199.101C486.941 198.921 486.787 198.586 486.709 198.329C486.606 197.891 486.709 197.401 486.993 197.041C487.534 196.345 488.384 195.341 489.234 194.362C489.955 193.512 490.651 192.713 491.037 192.198C491.81 191.193 491.835 190.395 491.14 189.39L484.751 180.116C484.545 179.807 484.52 179.421 484.726 179.112C484.906 178.803 485.241 178.622 485.627 178.674L498.894 180.503C499.512 180.606 500.104 180.4 500.568 179.988C501.006 179.575 501.264 179.009 501.238 178.39L500.182 155.644C500.156 155.103 500.491 154.82 500.826 154.717C501.161 154.614 501.599 154.665 501.856 155.129L513.86 175.402C514.195 175.969 514.762 176.33 515.432 176.407C516.076 176.458 516.694 176.227 517.132 175.737L524.345 167.88C524.576 167.597 524.937 167.52 525.272 167.623C525.607 167.726 525.864 167.983 525.916 168.344L527.848 180.348C527.977 181.25 528.698 181.945 529.574 182.048L544.747 184.135C545.133 184.186 545.391 184.418 545.519 184.779C545.622 185.14 545.519 185.474 545.236 185.732L536.375 193.486C535.55 194.207 535.421 195.418 536.091 196.268L541.346 203.146C541.578 203.429 541.604 203.764 541.449 204.073C541.32 204.408 541.011 204.588 540.676 204.614L529.394 205.078C528.415 205.104 527.59 205.851 527.462 206.829L526.071 216.258C526.019 216.593 525.813 216.85 525.53 216.979C525.22 217.108 524.911 217.056 524.628 216.876L517.055 211.415C516.694 211.157 516.282 211.028 515.87 211.028Z" fill="black"/>
<path d="M137.79 387.173L142.839 404.741L125.09 400.336L137.79 387.173Z" fill="#FDA4FF"/>
<path fill-rule="evenodd" clip-rule="evenodd" d="M142.839 405.308C142.993 405.308 143.148 405.256 143.251 405.128C143.38 404.999 143.457 404.767 143.38 404.587L138.331 386.993C138.279 386.812 138.125 386.658 137.919 386.606C137.713 386.555 137.507 386.606 137.378 386.761L124.678 399.95C124.549 400.079 124.472 400.285 124.549 400.491C124.601 400.697 124.755 400.826 124.961 400.877L142.71 405.282C142.744 405.299 142.787 405.308 142.839 405.308ZM137.507 388.255L142.015 403.943L126.172 400.027L137.507 388.255Z" fill="black"/>
<path d="M113.601 339.903C108.707 373.675 124.291 388.203 136.759 391.295C150 394.566 170.144 387.662 181.247 356.699C191.37 328.389 177.975 305.024 159.299 300.388C140.623 295.751 117.877 310.151 113.601 339.903Z" fill="#FDA4FF"/>
<path d="M117.826 351.393C118.135 351.393 118.393 351.161 118.393 350.826C118.418 347.683 118.676 344.309 119.165 340.857C119.268 340.135 119.397 339.414 119.526 338.719C119.578 338.41 119.372 338.126 119.062 338.049C118.753 337.997 118.444 338.203 118.393 338.513C118.264 339.234 118.135 339.955 118.032 340.676C117.543 344.206 117.259 347.632 117.259 350.826C117.259 351.135 117.517 351.393 117.826 351.393Z" fill="white"/>
<path d="M120.222 333.902C120.479 333.902 120.685 333.721 120.763 333.489C124.008 322.516 130.68 314.092 139.516 309.764C139.799 309.61 139.902 309.275 139.773 308.992C139.619 308.708 139.284 308.58 139.001 308.734C129.882 313.216 123.004 321.897 119.681 333.155C119.578 333.464 119.758 333.773 120.067 333.876C120.119 333.893 120.17 333.902 120.222 333.902Z" fill="white"/>
<path fill-rule="evenodd" clip-rule="evenodd" d="M143.045 392.608C148.79 392.608 154.663 390.805 160.124 387.328C169.269 381.454 176.739 370.918 181.788 356.879C186.94 342.454 186.425 328.208 180.32 316.797C175.683 308.141 168.084 301.959 159.428 299.821C150.799 297.683 141.216 299.589 133.102 305.05C122.36 312.289 115.224 324.628 113.035 339.826C108.269 372.722 122.772 388.41 136.605 391.836C138.717 392.351 140.855 392.608 143.045 392.608ZM152.319 300.104C154.637 300.104 156.93 300.388 159.171 300.929C167.491 302.989 174.833 308.966 179.315 317.312C185.266 328.466 185.755 342.376 180.706 356.493C175.76 370.3 168.419 380.63 159.506 386.349C149.743 392.634 141.139 391.784 136.888 390.728C123.493 387.405 109.506 372.129 114.142 339.981C116.306 325.117 123.261 313.036 133.746 306.003C139.464 302.139 145.982 300.104 152.319 300.104Z" fill="black"/>
<path d="M121.999 451.856C122.309 451.856 122.566 451.599 122.566 451.29C122.583 450.826 122.652 450.336 122.772 449.821C123.597 446.447 126.301 445.339 129.187 444.128C132.175 442.892 135.266 441.604 136.245 437.663C137.224 433.747 135.086 431.145 133.025 428.647C131.041 426.251 129.187 423.984 130.011 420.609C130.861 417.235 133.566 416.127 136.425 414.916C139.413 413.68 142.53 412.392 143.509 408.451C144.462 404.535 142.324 401.933 140.263 399.435C138.28 397.039 136.425 394.772 137.249 391.398C137.327 391.114 137.146 390.805 136.837 390.728C136.528 390.651 136.219 390.831 136.142 391.14C135.189 395.055 137.327 397.657 139.387 400.156C141.371 402.552 143.226 404.819 142.401 408.193C141.551 411.568 138.847 412.675 135.987 413.886C132.973 415.123 129.882 416.411 128.903 420.352C127.924 424.267 130.062 426.869 132.149 429.368C134.107 431.763 135.987 434.03 135.137 437.405C134.313 440.779 131.608 441.887 128.749 443.098C125.735 444.334 122.643 445.622 121.665 449.564C121.51 450.148 121.433 450.714 121.433 451.264C121.407 451.573 121.665 451.831 121.974 451.856C121.974 451.856 121.982 451.856 121.999 451.856Z" fill="black"/>
<path d="M467.028 192.275C467.063 192.275 467.106 192.266 467.157 192.249C467.466 192.172 467.647 191.889 467.569 191.58C466.822 188.179 464.195 187.02 461.644 185.887C459.275 184.83 457.008 183.852 456.364 181.018C455.745 178.184 457.343 176.304 459.068 174.346C460.872 172.234 462.752 170.07 461.979 166.67C461.232 163.269 458.605 162.11 456.055 161.002C453.685 159.946 451.418 158.942 450.774 156.108C450.156 153.274 451.753 151.42 453.479 149.436C455.282 147.324 457.162 145.16 456.389 141.76C455.642 138.385 453.015 137.2 450.465 136.092C448.095 135.036 445.828 134.032 445.184 131.198C445.132 130.889 444.823 130.709 444.514 130.786C444.205 130.837 444.025 131.147 444.076 131.456C444.849 134.856 447.476 136.015 450.001 137.123C452.397 138.179 454.664 139.184 455.282 142.017C455.926 144.851 454.303 146.706 452.603 148.689C450.8 150.801 448.919 152.965 449.666 156.366C450.439 159.74 453.066 160.899 455.591 162.033C457.987 163.089 460.253 164.094 460.872 166.927C461.516 169.761 459.893 171.616 458.193 173.599C456.389 175.686 454.509 177.875 455.256 181.25C456.029 184.65 458.656 185.809 461.181 186.943C463.576 187.999 465.843 188.978 466.462 191.811C466.539 192.095 466.771 192.275 467.028 192.275Z" fill="black"/>
<path d="M443.896 127.798L454.406 139.21L439.259 142.61L443.896 127.798Z" fill="#FDA4FF"/>
<path fill-rule="evenodd" clip-rule="evenodd" d="M439.259 143.177C439.311 143.177 439.354 143.177 439.388 143.177L454.535 139.776C454.715 139.725 454.895 139.57 454.947 139.39C454.998 139.184 454.973 138.978 454.818 138.823L444.308 127.411C444.179 127.283 443.973 127.205 443.767 127.257C443.561 127.283 443.406 127.437 443.355 127.643L438.718 142.43C438.667 142.636 438.718 142.842 438.847 142.996C438.95 143.125 439.105 143.177 439.259 143.177ZM453.324 138.875L440.109 141.837L444.154 128.906L453.324 138.875Z" fill="black"/>
<path d="M407.626 101.162C416.745 128.622 434.056 133.697 444.669 131.327C455.977 128.777 468.626 115.923 465.277 88.2048C462.237 62.8827 443.2 50.2603 427.281 53.8409C411.361 57.3958 399.589 76.9477 407.626 101.162Z" fill="#FDA4FF"/>
<path d="M414.968 108.401C415.054 108.401 415.139 108.383 415.225 108.349C415.509 108.194 415.612 107.86 415.483 107.576C414.298 105.181 413.216 102.553 412.289 99.7194C412.1 99.1355 411.919 98.5602 411.748 97.9935C411.67 97.6844 411.336 97.504 411.052 97.5813C410.743 97.6844 410.563 97.9935 410.666 98.3026C410.837 98.8865 411.018 99.479 411.207 100.08C412.16 102.939 413.268 105.644 414.452 108.091C414.556 108.272 414.762 108.401 414.968 108.401Z" fill="white"/>
<path d="M410.151 94.2068C410.185 94.2068 410.22 94.2068 410.254 94.2068C410.563 94.1553 410.769 93.8461 410.718 93.537C409.017 84.0316 410.846 75.1186 415.895 68.4983C416.076 68.2407 416.05 67.8801 415.792 67.6997C415.535 67.5194 415.174 67.5709 414.994 67.8028C409.764 74.7065 407.832 83.9028 409.584 93.7431C409.636 94.0265 409.867 94.2068 410.151 94.2068Z" fill="white"/>
<path fill-rule="evenodd" clip-rule="evenodd" d="M439.749 132.435C441.5 132.435 443.201 132.229 444.798 131.868C451.367 130.4 457.085 125.995 460.975 119.503C465.689 111.543 467.364 100.698 465.844 88.1276C464.298 75.196 458.476 64.5829 449.486 58.2202C442.685 53.4288 434.545 51.6256 427.152 53.2743C419.785 54.9229 413.19 60.0234 409.12 67.262C403.685 76.8447 402.964 88.9519 407.085 101.342C414.762 124.501 428.517 132.435 439.749 132.435ZM432.665 53.8152C438.203 53.8152 443.87 55.6442 448.842 59.1476C457.549 65.33 463.19 75.6597 464.736 88.2821C466.204 100.595 464.581 111.183 459.996 118.911C454.973 127.334 448.172 129.962 444.566 130.76C433.18 133.311 416.822 127.051 408.167 100.982C404.148 88.9004 404.844 77.128 410.099 67.8287C414.04 60.8735 420.352 55.9791 427.41 54.382C429.136 53.9956 430.887 53.8152 432.665 53.8152Z" fill="black"/>
<path d="M484.751 102.244C485.06 102.244 485.318 101.986 485.318 101.677C485.318 99.3846 484.339 98.1739 483.489 97.1177C482.639 96.0873 481.918 95.1857 481.918 93.3052C481.918 91.399 482.639 90.5231 483.489 89.467C484.339 88.4108 485.318 87.2259 485.318 84.9332C485.318 82.6406 484.339 81.4298 483.489 80.3737C482.639 79.3433 481.918 78.4417 481.918 76.5612C481.918 74.655 482.639 73.7534 483.489 72.723C484.339 71.6668 485.318 70.4819 485.318 68.1892C485.318 65.8966 484.339 64.6858 483.489 63.6297C482.639 62.5993 481.918 61.6977 481.918 59.8172C481.918 59.4823 481.66 59.2505 481.325 59.2505C481.016 59.2505 480.758 59.4823 480.758 59.8172C480.758 62.1099 481.737 63.2948 482.613 64.351C483.463 65.3814 484.184 66.283 484.184 68.1892C484.184 70.0697 483.463 70.9713 482.613 72.0017C481.737 73.0578 480.758 74.2686 480.758 76.5612C480.758 78.8539 481.737 80.0388 482.613 81.095C483.463 82.1254 484.184 83.027 484.184 84.9332C484.184 86.8137 483.463 87.7153 482.613 88.7457C481.737 89.8018 480.758 91.0126 480.758 93.3052C480.758 95.5979 481.737 96.7828 482.613 97.839C483.463 98.8951 484.184 99.7967 484.184 101.677C484.184 101.986 484.442 102.244 484.751 102.244Z" fill="#4ADA85"/>
<path d="M381.84 502.269C382.15 502.269 382.407 502.011 382.407 501.702C382.407 499.409 381.454 498.199 380.578 497.142C379.728 496.112 379.007 495.21 379.007 493.33C379.007 491.424 379.728 490.522 380.578 489.492C381.454 488.436 382.407 487.225 382.407 484.932C382.407 482.64 381.454 481.455 380.578 480.398C379.728 479.368 379.007 478.466 379.007 476.56C379.007 474.68 379.728 473.778 380.578 472.748C381.454 471.692 382.407 470.481 382.407 468.188C382.407 465.896 381.454 464.711 380.578 463.654C379.728 462.624 379.007 461.722 379.007 459.816C379.007 459.507 378.749 459.25 378.44 459.25C378.131 459.25 377.873 459.507 377.873 459.816C377.873 462.109 378.852 463.32 379.702 464.376C380.552 465.406 381.274 466.308 381.274 468.188C381.274 470.094 380.552 470.996 379.702 472.026C378.827 473.083 377.873 474.268 377.873 476.56C377.873 478.853 378.852 480.064 379.702 481.12C380.552 482.15 381.274 483.052 381.274 484.932C381.274 486.838 380.552 487.74 379.702 488.77C378.827 489.827 377.873 491.012 377.873 493.33C377.873 495.623 378.827 496.808 379.702 497.864C380.552 498.894 381.274 499.796 381.274 501.702C381.274 502.011 381.531 502.269 381.84 502.269Z" fill="#FED101"/>
<path d="M309.686 156.286C309.995 156.286 310.253 156.028 310.253 155.719C310.253 153.427 309.274 152.216 308.424 151.16C307.574 150.129 306.853 149.228 306.853 147.347C306.853 145.441 307.574 144.565 308.424 143.509C309.274 142.453 310.253 141.268 310.253 138.975C310.253 136.683 309.274 135.472 308.424 134.416C307.574 133.385 306.853 132.484 306.853 130.603C306.853 128.697 307.574 127.795 308.424 126.765C309.274 125.709 310.253 124.524 310.253 122.231C310.253 119.939 309.274 118.728 308.424 117.672C307.574 116.641 306.853 115.74 306.853 113.859C306.853 113.524 306.595 113.292 306.286 113.292C305.951 113.292 305.694 113.524 305.694 113.859C305.694 116.152 306.672 117.337 307.548 118.393C308.398 119.423 309.12 120.325 309.12 122.231C309.12 124.112 308.398 125.013 307.548 126.044C306.672 127.1 305.694 128.311 305.694 130.603C305.694 132.896 306.672 134.081 307.548 135.137C308.398 136.167 309.12 137.069 309.12 138.975C309.12 140.856 308.398 141.757 307.548 142.788C306.672 143.844 305.694 145.055 305.694 147.347C305.694 149.64 306.672 150.825 307.548 151.881C308.398 152.937 309.12 153.839 309.12 155.719C309.12 156.028 309.377 156.286 309.686 156.286Z" fill="#FED101"/>
<path d="M361.129 169.99C361.438 169.99 361.696 169.733 361.696 169.424C361.696 167.878 361.052 167.079 360.459 166.384C359.944 165.766 359.506 165.199 359.506 164.065C359.506 162.932 359.944 162.391 360.459 161.747C361.052 161.052 361.696 160.253 361.696 158.707C361.696 157.162 361.052 156.363 360.459 155.668C359.944 155.024 359.506 154.483 359.506 153.349C359.506 152.216 359.944 151.649 360.459 151.031C361.052 150.335 361.696 149.537 361.696 147.991C361.696 146.446 361.052 145.647 360.459 144.952C359.944 144.308 359.506 143.767 359.506 142.633C359.506 142.324 359.248 142.066 358.939 142.066C358.63 142.066 358.373 142.324 358.373 142.633C358.373 144.179 359.017 144.977 359.583 145.673C360.098 146.291 360.562 146.858 360.562 147.991C360.562 149.125 360.098 149.666 359.583 150.31C359.017 151.005 358.373 151.804 358.373 153.349C358.373 154.895 359.017 155.693 359.583 156.389C360.098 157.007 360.562 157.574 360.562 158.707C360.562 159.841 360.098 160.382 359.583 161.026C359.017 161.721 358.373 162.52 358.373 164.065C358.373 165.611 359.017 166.41 359.583 167.105C360.098 167.749 360.562 168.29 360.562 169.424C360.562 169.733 360.82 169.99 361.129 169.99Z" fill="#FDA4FF"/>
</svg>
