<svg width="48" height="48" viewBox="0 0 48 48" fill="none" xmlns="http://www.w3.org/2000/svg">
<path d="M24.0201 14.9099C20.7101 14.9099 18.0201 17.5999 18.0201 20.9099V23.7999C18.0201 24.4099 17.7601 25.3399 17.4501 25.8599L16.3001 27.7699C15.5901 28.9499 16.0801 30.2599 17.3801 30.6999C21.6901 32.1399 26.3401 32.1399 30.6501 30.6999C31.8601 30.2999 32.3901 28.8699 31.7301 27.7699L30.5801 25.8599C30.2801 25.3399 30.0201 24.4099 30.0201 23.7999V20.9099C30.0201 17.6099 27.3201 14.9099 24.0201 14.9099Z" stroke="#9A9A9A" stroke-width="1.5" stroke-miterlimit="10" stroke-linecap="round"/>
<path d="M25.8699 15.1999C25.5599 15.1099 25.2399 15.0399 24.9099 14.9999C23.9499 14.8799 23.0299 14.9499 22.1699 15.1999C22.4599 14.4599 23.1799 13.9399 24.0199 13.9399C24.8599 13.9399 25.5799 14.4599 25.8699 15.1999Z" stroke="#9A9A9A" stroke-width="1.5" stroke-miterlimit="10" stroke-linecap="round" stroke-linejoin="round"/>
<path d="M27.02 31.0601C27.02 32.7101 25.67 34.0601 24.02 34.0601C23.2 34.0601 22.44 33.7201 21.9 33.1801C21.36 32.6401 21.02 31.8801 21.02 31.0601" stroke="#9A9A9A" stroke-width="1.5" stroke-miterlimit="10"/>
<rect x="25" y="7.5" width="15" height="15" rx="7.5" fill="#6A5BC1"/>
<path d="M29.5469 17.0795V16.1918L32.6896 11.2273H33.3892V12.5341H32.9453L30.6974 16.0923V16.1491H35.005V17.0795H29.5469ZM32.995 18.5V16.8097L33.0021 16.4048V11.2273H34.0426V18.5H32.995Z" fill="white"/>
</svg>
