<svg width="125" height="112" viewBox="0 0 125 112" fill="none" xmlns="http://www.w3.org/2000/svg">
<path fill-rule="evenodd" clip-rule="evenodd" d="M124.295 85.9299C124.326 84.6774 121.89 83.3736 115.039 80.9031C98.9389 75.2324 80.8807 71.757 65.2309 71.4453L58.0892 71.2509L56.9957 65.551C54.7344 54.446 49.3869 42.0001 42.0292 30.64C36.0533 21.3414 26.5082 11.8718 20.3013 9.06322C19.7305 8.79443 21.8169 8.5399 24.8912 8.44251C30.4327 8.3204 32.2563 7.79451 33.4239 6.09256C34.8554 4.05038 32.6885 3.46933 22.2003 2.95754C16.3908 2.66064 10.1912 1.98206 8.13804 1.36368C6.04711 0.783052 3.91883 0.316111 3.38778 0.389185C1.90789 0.495123 0.323254 2.30874 0.519781 3.56248C0.598964 4.17027 2.85398 7.02941 6.06532 10.4673C12.2556 17.2617 14.016 19.9283 17.2871 27.4283C18.556 30.4339 19.9033 33.1406 20.2468 33.4841C22.2695 35.5068 22.8408 27.9895 20.9875 22.9646C20.294 21.0628 18.9124 18.2464 17.8748 16.6802C16.8033 15.0801 16.0745 13.6717 16.2255 13.5207C16.3388 13.4074 17.8605 14.0229 19.5739 14.9811C24.4514 17.6688 31.8995 25.4188 36.6081 32.7704C41.5121 40.393 45.3151 47.9718 47.8161 55.0121C49.9397 60.9115 52.4582 71.2165 51.8919 71.7828C51.7408 71.9339 49.8841 72.5692 47.762 73.2411C45.6776 73.8753 42.9496 74.8476 41.7717 75.4149C31.3548 80.336 26.6184 89.8049 29.5934 99.5092C30.5586 102.513 31.2865 103.77 33.506 106.291C36.8284 109.991 39.0791 111.26 42.8383 111.47C48.1163 111.764 53.1858 107.763 56.001 101.055C57.8373 96.6239 58.7245 91.386 58.8683 83.6006L58.9872 76.6883L64.0748 76.8674C76.1193 77.3496 92.7703 80.3239 109.054 84.8948C120.468 88.0688 122.33 88.4205 123.463 87.2878C123.916 86.8347 124.33 86.1916 124.291 85.9256L124.295 85.9299ZM43.6927 106.426C39.5215 107.239 35.2866 104.061 33.6259 98.7759C30.5728 89.455 36.872 81.1713 49.2437 78.1966L52.6558 77.3798L52.9717 79.6591C53.4838 83.1162 52.6252 92.9138 51.5441 96.5901C49.8238 102.203 47.0339 105.757 43.6969 106.422L43.6927 106.426Z" fill="white"/>
</svg>
