<svg width="71" height="64" viewBox="0 0 71 64" fill="none" xmlns="http://www.w3.org/2000/svg">
<path fill-rule="evenodd" clip-rule="evenodd" d="M70.4173 48.9918C70.435 48.2809 69.052 47.5408 65.1637 46.1386C56.025 42.9198 45.775 40.9472 36.8921 40.7702L32.8383 40.6599L32.2177 37.4246C30.9342 31.1213 27.8989 24.0568 23.7225 17.6087C20.3305 12.3308 14.9126 6.95575 11.3896 5.36155C11.0656 5.20899 12.2498 5.0645 13.9948 5.00923C17.1403 4.93992 18.1753 4.64142 18.8381 3.67537C19.6506 2.51621 18.4207 2.1864 12.4675 1.89591C9.16994 1.72738 5.65099 1.34221 4.48559 0.991214C3.29876 0.661645 2.09072 0.396606 1.7893 0.438082C0.949301 0.498215 0.0498451 1.52764 0.161393 2.23928C0.20634 2.58426 1.48631 4.20714 3.30909 6.15851C6.82273 10.0151 7.822 11.5287 9.6787 15.7857C10.3989 17.4918 11.1637 19.0281 11.3586 19.2231C12.5067 20.3712 12.831 16.1043 11.7791 13.2521C11.3854 12.1726 10.6012 10.574 10.0123 9.68502C9.40409 8.7768 8.99039 7.97736 9.07611 7.89164C9.14041 7.82734 10.0042 8.17673 10.9767 8.72062C13.7452 10.2461 17.9728 14.6451 20.6454 18.818C23.429 23.1446 25.5876 27.4464 27.0072 31.4425C28.2126 34.7911 29.6421 40.6403 29.3207 40.9618C29.2349 41.0475 28.1811 41.4082 26.9765 41.7895C25.7934 42.1495 24.245 42.7014 23.5764 43.0234C17.6636 45.8167 14.9752 51.1913 16.6639 56.6995C17.2117 58.4047 17.6249 59.1179 18.8847 60.5492C20.7705 62.6493 22.048 63.3696 24.1818 63.4888C27.1777 63.6557 30.0551 61.3848 31.6531 57.5772C32.6954 55.0618 33.1989 52.0887 33.2805 47.6697L33.3481 43.7462L36.2359 43.8479C43.0724 44.1216 52.5237 45.8098 61.7667 48.4043C68.2452 50.2059 69.302 50.4055 69.945 49.7625C70.2022 49.5054 70.4372 49.1403 70.4149 48.9894L70.4173 48.9918ZM24.6668 60.6257C22.2991 61.087 19.8954 59.2833 18.9528 56.2833C17.2198 50.9927 20.7953 46.2908 27.8176 44.6023L29.7543 44.1387L29.9336 45.4324C30.2243 47.3947 29.737 52.9559 29.1233 55.0426C28.1469 58.2287 26.5632 60.2456 24.6692 60.6233L24.6668 60.6257Z" fill="#6A5BC1"/>
</svg>
