<svg width="80" height="80" viewBox="0 0 80 80" fill="none" xmlns="http://www.w3.org/2000/svg">
<rect x="0.5" y="0.5" width="79" height="79" rx="39.5" fill="#6A5BC1" fill-opacity="0.12"/>
<rect x="0.5" y="0.5" width="79" height="79" rx="39.5" stroke="#6A5BC1"/>
<path fill-rule="evenodd" clip-rule="evenodd" d="M27.995 58.0075H23.9933C22.8885 58.0071 21.9929 57.1116 21.9925 56.0067V44.0017C21.9929 42.8968 22.8885 42.0013 23.9933 42.0009H27.995C29.0999 42.0013 29.9954 42.8968 29.9958 44.0017V56.0067C29.9954 57.1116 29.0999 58.0071 27.995 58.0075V58.0075Z" stroke="#6A5BC1" stroke-width="2" stroke-linecap="round" stroke-linejoin="round"/>
<path d="M42.0008 50.0042H45.9225C46.7884 50.0047 47.631 49.7238 48.3235 49.2038L53.1575 45.5783C54.3644 44.6739 56.0526 44.7941 57.1191 45.8605V45.8605C57.6879 46.4285 58.0075 47.1995 58.0075 48.0033C58.0075 48.8072 57.6879 49.5781 57.1191 50.1462L52.9714 54.294C51.8538 55.4109 50.4309 56.1725 48.8817 56.4829L43.0192 57.6554C41.857 57.8878 40.6576 57.8591 39.5078 57.5713L34.2056 56.2468C33.5717 56.087 32.9205 56.0064 32.2668 56.0067H29.9958" stroke="#6A5BC1" stroke-width="2" stroke-linecap="round" stroke-linejoin="round"/>
<path d="M42.0008 50.0042H44.9721C45.7761 50.0044 46.5472 49.6851 47.1157 49.1166C47.6842 48.5481 48.0035 47.7769 48.0033 46.9729V46.3667C48.0037 44.9763 47.0573 43.7643 45.7084 43.4274L41.1225 42.281C40.3771 42.095 39.6117 42.0009 38.8435 42.0009V42.0009C36.9883 42.0003 35.1745 42.5496 33.6313 43.5795L29.9958 46.0025" stroke="#6A5BC1" stroke-width="2" stroke-linecap="round" stroke-linejoin="round"/>
<path d="M54.5416 29.4602C56.495 31.4136 56.495 34.5808 54.5416 36.5342C52.5882 38.4876 49.421 38.4876 47.4676 36.5342C45.5141 34.5808 45.5141 31.4136 47.4676 29.4602C48.4056 28.5221 49.6779 27.9951 51.0046 27.9951C52.3312 27.9951 53.6035 28.5221 54.5416 29.4602" stroke="#6A5BC1" stroke-width="2" stroke-linecap="round" stroke-linejoin="round"/>
<path fill-rule="evenodd" clip-rule="evenodd" d="M28.8152 27.0416C28.2367 26.4631 28.2367 25.5252 28.8152 24.9466L33.9504 19.8114C34.5289 19.2329 35.4669 19.2329 36.0454 19.8114L41.1806 24.9466C41.7592 25.5252 41.7592 26.4631 41.1806 27.0416L36.0454 32.1769C35.4669 32.7554 34.5289 32.7554 33.9504 32.1769L28.8152 27.0416Z" stroke="#6A5BC1" stroke-width="2" stroke-linecap="round" stroke-linejoin="round"/>
</svg>
