<svg width="42" height="42" viewBox="0 0 42 42" fill="none" xmlns="http://www.w3.org/2000/svg">
<rect width="42" height="42" rx="21" fill="#F9F9F9"/>
<path opacity="0.4" d="M21 28.425C25.1421 28.425 28.5 25.0672 28.5 20.925C28.5 16.7829 25.1421 13.425 21 13.425C16.8579 13.425 13.5 16.7829 13.5 20.925C13.5 25.0672 16.8579 28.425 21 28.425Z" fill="#6A5BC1"/>
<path d="M22.6951 21L21.5626 20.6025V18.06H21.8326C22.4401 18.06 22.9351 18.5925 22.9351 19.245C22.9351 19.5525 23.1901 19.8075 23.4976 19.8075C23.8051 19.8075 24.0601 19.5525 24.0601 19.245C24.0601 17.97 23.0626 16.935 21.8326 16.935H21.5626V16.5C21.5626 16.1925 21.3076 15.9375 21.0001 15.9375C20.6926 15.9375 20.4376 16.1925 20.4376 16.5V16.935H19.9501C18.8401 16.935 17.9326 17.8725 17.9326 19.02C17.9326 20.3625 18.7126 20.79 19.3051 21L20.4376 21.3975V23.9325H20.1676C19.5601 23.9325 19.0651 23.4 19.0651 22.7475C19.0651 22.44 18.8101 22.185 18.5026 22.185C18.1951 22.185 17.9401 22.44 17.9401 22.7475C17.9401 24.0225 18.9376 25.0575 20.1676 25.0575H20.4376V25.5C20.4376 25.8075 20.6926 26.0625 21.0001 26.0625C21.3076 26.0625 21.5626 25.8075 21.5626 25.5V25.065H22.0501C23.1601 25.065 24.0676 24.1275 24.0676 22.98C24.0601 21.63 23.2801 21.2025 22.6951 21ZM19.6801 19.9425C19.2976 19.8075 19.0651 19.68 19.0651 19.0275C19.0651 18.495 19.4626 18.0675 19.9576 18.0675H20.4451V20.2125L19.6801 19.9425ZM22.0501 23.94H21.5626V21.795L22.3201 22.0575C22.7026 22.1925 22.9351 22.32 22.9351 22.9725C22.9351 23.505 22.5376 23.94 22.0501 23.94Z" fill="#6A5BC1"/>
</svg>
