<svg width="25" height="24" viewBox="0 0 25 24" fill="none" xmlns="http://www.w3.org/2000/svg">
<path d="M14.5 6.19995V10C11.71 10.05 10.55 11.21 10.5 14H6.7C3.7 14 2.5 12.8 2.5 9.80005V6.19995C2.5 3.19995 3.7 2 6.7 2H10.3C13.3 2 14.5 3.19995 14.5 6.19995Z" stroke="#BAC2FF" stroke-width="1.5" stroke-linecap="round" stroke-linejoin="round"/>
<path d="M7.45995 5.87008C6.92995 5.51008 6.22995 5.5101 5.69995 5.8901" stroke="#BAC2FF" stroke-width="1.5" stroke-miterlimit="10" stroke-linecap="round" stroke-linejoin="round"/>
<path d="M11.4599 5.87008C10.9299 5.51008 10.23 5.5101 9.69995 5.8901" stroke="#BAC2FF" stroke-width="1.5" stroke-miterlimit="10" stroke-linecap="round" stroke-linejoin="round"/>
<path d="M8.66005 11.4202H6.34005C6.04005 11.4202 5.80005 11.1801 5.80005 10.8801C5.80005 9.39013 7.01005 8.18018 8.50005 8.18018C9.14005 8.18018 9.73005 8.40014 10.19 8.77014" stroke="#BAC2FF" stroke-width="1.5" stroke-miterlimit="10" stroke-linecap="round" stroke-linejoin="round"/>
<path d="M22.5 14.2V17.8C22.5 20.8 21.3 22 18.3 22H14.7C11.7 22 10.5 20.8 10.5 17.8V14C10.55 11.21 11.71 10.05 14.5 10H18.3C21.3 10 22.5 11.2 22.5 14.2Z" stroke="#BAC2FF" stroke-width="1.5" stroke-linecap="round" stroke-linejoin="round"/>
<path d="M15.4599 13.6201C14.9299 13.9801 14.23 13.9801 13.7 13.6001" stroke="#BAC2FF" stroke-width="1.5" stroke-miterlimit="10" stroke-linecap="round" stroke-linejoin="round"/>
<path d="M19.4599 13.6201C18.9299 13.9801 18.23 13.9801 17.7 13.6001" stroke="#BAC2FF" stroke-width="1.5" stroke-miterlimit="10" stroke-linecap="round" stroke-linejoin="round"/>
<path d="M14.34 16.1802H18.66C18.96 16.1802 19.2001 16.4201 19.2001 16.7201C19.2001 18.2101 17.99 19.4202 16.5 19.4202C15.01 19.4202 13.8 18.2101 13.8 16.7201C13.8 16.4201 14.04 16.1802 14.34 16.1802Z" stroke="#BAC2FF" stroke-width="1.5" stroke-miterlimit="10" stroke-linecap="round" stroke-linejoin="round"/>
</svg>
