<svg width="42" height="42" viewBox="0 0 42 42" fill="none" xmlns="http://www.w3.org/2000/svg">
<rect width="42" height="42" rx="21" fill="#F9F9F9"/>
<path opacity="0.4" d="M17.25 25.8225H20.25L23.5875 28.0425C24.0825 28.3725 24.75 28.02 24.75 27.42V25.8225C27 25.8225 28.5 24.3225 28.5 22.0725V17.5725C28.5 15.3225 27 13.8225 24.75 13.8225H17.25C15 13.8225 13.5 15.3225 13.5 17.5725V22.0725C13.5 24.3225 15 25.8225 17.25 25.8225Z" fill="#6A5BC1"/>
<path d="M23.625 20.4375H18.375C18.0675 20.4375 17.8125 20.1825 17.8125 19.875C17.8125 19.5675 18.0675 19.3125 18.375 19.3125H23.625C23.9325 19.3125 24.1875 19.5675 24.1875 19.875C24.1875 20.1825 23.9325 20.4375 23.625 20.4375Z" fill="#6A5BC1"/>
</svg>
