<svg width="1190" height="420" viewBox="0 0 1190 420" fill="none" xmlns="http://www.w3.org/2000/svg">
<path fill-rule="evenodd" clip-rule="evenodd" d="M844.743 646.936C868.081 734.045 957.607 785.739 1044.7 762.398C1109.88 744.933 1155.23 690.4 1164.15 627.554C1164.66 630.342 1165.17 633.13 1165.66 635.918C1161.63 740.165 1090.65 834.127 984.606 862.545C854.208 897.49 720.175 820.096 685.235 689.682C650.295 559.267 727.679 425.217 858.077 390.273C965.859 361.389 1076.12 409.255 1130.86 500.374C1131.55 502.38 1132.22 504.391 1132.89 506.405C1094.02 454.826 1026.4 429.205 960.191 446.949C873.093 470.29 821.406 559.827 844.743 646.936ZM1159.9 561.483C1159.89 561.439 1159.88 561.396 1159.87 561.353C1159.76 560.954 1159.65 560.556 1159.55 560.157C1159.45 559.789 1159.35 559.42 1159.25 559.052C1159.16 558.735 1159.08 558.418 1159 558.101L1158.94 557.907L1158.9 557.727C1158.83 557.497 1158.77 557.267 1158.71 557.037C1158.59 556.575 1158.46 556.114 1158.34 555.652C1158.06 554.615 1157.78 553.579 1157.5 552.545C1027.18 72.8357 533.329 -211.454 52.8395 -82.6903C-428.687 46.3507 -714.446 541.363 -585.421 1022.95C-456.397 1504.54 38.5526 1790.33 520.079 1661.29C993.826 1534.34 1278.08 1053.14 1164.27 579.001C1163.7 576.593 1163.11 574.184 1162.52 571.776C1161.85 568.965 1161.14 566.154 1160.4 563.344C1160.32 563.033 1160.24 562.723 1160.15 562.412C1160.07 562.102 1159.99 561.792 1159.9 561.483ZM1134.79 512.165C1096.99 458.077 1028.09 430.667 960.669 448.735C874.558 471.811 823.455 560.335 846.529 646.458C869.602 732.58 958.115 783.689 1044.23 760.613C1110.63 742.819 1156.21 686.11 1163.02 621.595C1158.96 600.491 1154.12 579.381 1148.47 558.297C1144.29 542.71 1139.73 527.33 1134.79 512.165ZM-432.222 981.896C-314.533 1421.17 136.932 1681.86 576.154 1564.16C867.2 1486.16 1079.84 1261.59 1155.94 991.129C1083.6 1301.62 846.855 1563.14 517.434 1651.42C41.3591 1779 -447.987 1496.44 -575.551 1020.31C-703.115 544.17 -420.591 54.7615 55.4842 -72.8187C384.909 -161.099 720.689 -53.0007 938.561 179.725C737.44 -16.4482 441.014 -104.605 149.964 -26.6082C-289.257 91.0959 -549.911 542.619 -432.222 981.896ZM857.353 387.569C960.805 359.845 1066.52 402.029 1124.35 485.167C1052.28 359.302 902.167 292.501 755.485 331.809C580.802 378.622 477.136 558.198 523.943 732.904C570.749 907.61 750.303 1011.29 924.986 964.476C1071.24 925.281 1167.72 793.015 1167.77 648.462L1167.7 648.021C1158.87 748.608 1088.51 837.6 985.33 865.249C853.439 900.594 717.872 822.314 682.532 690.406C647.192 558.498 725.462 422.914 857.353 387.569ZM1112.14 458.854C1020.43 302.739 832.809 220.33 649.441 269.469C429.241 328.479 298.564 554.847 357.567 775.075C416.569 995.303 642.907 1126 863.107 1066.99C1038.97 1019.86 1157.73 865.98 1168.37 693.737C1150.55 821.569 1058.45 932.591 925.957 968.098C749.273 1015.45 567.663 910.581 520.321 733.875C472.979 557.168 577.831 375.536 754.515 328.187C893.07 291.057 1034.65 347.532 1112.14 458.854ZM648.217 264.904C819.688 218.952 994.84 286.731 1093.6 422.007C979.38 240.027 756.06 145.367 537.697 203.884C269.52 275.751 110.372 551.439 182.23 819.65C254.088 1087.86 529.74 1247.03 797.917 1175.16C1007.59 1118.97 1150.61 938.197 1168.7 733.813C1143.53 891.522 1028.54 1027.55 864.331 1071.55C641.609 1131.24 412.679 999.048 353.001 776.298C293.323 553.548 425.496 324.589 648.217 264.904ZM1058.68 364.09C919.892 175.464 674.933 81.1508 435.105 145.421C122.643 229.155 -62.7866 550.369 20.9375 862.872C104.662 1175.37 425.835 1360.83 738.297 1277.09C978.118 1212.82 1143.11 1008.66 1169 775.914C1136.26 965.206 997.131 1127.74 799.406 1180.72C528.159 1253.41 249.35 1092.42 176.67 821.14C103.989 549.858 264.96 271.013 536.207 198.324C733.938 145.335 935.686 216.523 1058.68 364.09ZM688.613 1362.04C941.27 1294.33 1119.64 1087.75 1163.63 846.416C1115.28 1052.02 958.301 1225.08 740.033 1283.57C423.993 1368.26 99.1421 1180.69 14.4593 864.608C-70.2234 548.527 117.329 223.635 433.37 138.942C651.636 80.4498 874.105 151.822 1018.76 305.701C860.015 118.697 602.267 28.9952 349.611 96.7026C0.243649 190.327 -207.087 549.48 -113.474 898.892C-19.861 1248.3 339.246 1455.66 688.613 1362.04ZM1003.42 277.21C825.789 66.6616 536.387 -34.5293 252.719 41.4891C-138.475 146.322 -370.626 548.472 -265.806 939.715C-160.986 1330.96 241.112 1563.14 632.306 1458.31C915.978 1382.29 1116.02 1149.93 1164.59 878.757C1111.01 1109.4 935.216 1303.72 690.554 1369.28C337.186 1463.98 -26.0325 1254.25 -120.717 900.833C-215.402 547.42 -5.69764 184.155 347.671 89.4583C592.329 23.8939 841.709 104.261 1003.42 277.21ZM573.742 1555.15C875.085 1474.4 1091.41 1234.71 1156.72 950.428C1088.11 1193.97 896.588 1396.18 634.479 1466.42C238.806 1572.45 -167.896 1337.61 -273.917 941.889C-379.937 546.166 -145.127 139.411 250.546 33.3775C527.249 -40.7744 809.347 51.7791 990.231 249.48C793.466 12.0802 469.69 -102.639 152.377 -17.6039C-281.873 98.7677 -539.576 545.179 -423.219 979.484C-306.862 1413.79 139.492 1671.52 573.742 1555.15Z" fill="url(#paint0_linear_10_6349)" fill-opacity="0.12"/>
<defs>
<linearGradient id="paint0_linear_10_6349" x1="1505.58" y1="1336.78" x2="-211.975" y2="76.5973" gradientUnits="userSpaceOnUse">
<stop stop-color="white"/>
<stop offset="1" stop-color="white" stop-opacity="0"/>
</linearGradient>
</defs>
</svg>
