<svg width="40" height="40" viewBox="0 0 40 40" fill="none" xmlns="http://www.w3.org/2000/svg">
<rect x="0.5" y="0.5" width="39" height="39" rx="19.5" stroke="#E5E5E5"/>
<path fill-rule="evenodd" clip-rule="evenodd" d="M25.6 17.13V17.48C25.6 21.26 22.73 25.67 17.41 25.67C15.8 25.67 14.26 25.18 13 24.41C13.21 24.41 13.49 24.48 13.7 24.48C15.03 24.48 16.29 23.99 17.27 23.22C16.01 23.22 14.96 22.38 14.61 21.26C14.82 21.26 14.96 21.33 15.17 21.33C15.45 21.33 15.73 21.33 15.94 21.26C14.61 20.98 13.7 19.86 13.7 18.46V18.39C13.7 18.6 14.47 18.74 14.96 18.74C14.19 18.25 13.63 17.34 13.63 16.36C13.63 15.8 13.77 15.31 14.05 14.89C15.45 16.64 17.55 17.76 20 17.9C19.86 17.62 19.79 17.41 19.79 17.2C19.79 15.59 21.05 14.33 22.66 14.33C23.5 14.33 24.2 14.68 24.76 15.24C25.39 15.1 26.02 14.89 26.58 14.54C26.37 15.24 25.88 15.8 25.32 16.15C25.88 16.08 26.44 15.94 27 15.73C26.58 16.22 26.16 16.71 25.6 17.13V17.13Z" fill="#171717"/>
</svg>
