<svg width="32" height="32" viewBox="0 0 32 32" fill="none" xmlns="http://www.w3.org/2000/svg">
<rect width="32" height="32" rx="6" fill="#F9F9F9"/>
<path d="M22.1666 14.1001C20.6266 11.6801 18.3733 10.2867 15.9999 10.2867C14.8133 10.2867 13.6599 10.6334 12.6066 11.2801C11.5533 11.9334 10.6066 12.8867 9.83325 14.1001C9.16659 15.1467 9.16659 16.8467 9.83325 17.8934C11.3733 20.3201 13.6266 21.7067 15.9999 21.7067C17.1866 21.7067 18.3399 21.3601 19.3933 20.7134C20.4466 20.0601 21.3933 19.1067 22.1666 17.8934C22.8333 16.8534 22.8333 15.1467 22.1666 14.1001ZM15.9999 18.6934C14.5066 18.6934 13.3066 17.4867 13.3066 16.0001C13.3066 14.5134 14.5066 13.3067 15.9999 13.3067C17.4933 13.3067 18.6933 14.5134 18.6933 16.0001C18.6933 17.4867 17.4933 18.6934 15.9999 18.6934Z" fill="#262626"/>
<path d="M15.9999 14.0934C14.9532 14.0934 14.0999 14.9467 14.0999 16.0001C14.0999 17.0467 14.9532 17.9001 15.9999 17.9001C17.0465 17.9001 17.9065 17.0467 17.9065 16.0001C17.9065 14.9534 17.0465 14.0934 15.9999 14.0934Z" fill="#262626"/>
</svg>
